<svg xmlns="http://www.w3.org/2000/svg" viewBox="0 0 500 500"><g id="freepik--Plants--inject-114"><g id="freepik--plants--inject-114"><path d="M422.61,305.63c.6-2.27,4.76-1.66,6.68-1.84a9.66,9.66,0,0,0,4.26-1.07,4.93,4.93,0,0,0,2.11-5.36c-.32-1.16-1.08-2.29-.81-3.45.36-1.54,2.22-2.11,3.77-2.41,2.53-.47,4.52-.67,5.78-3.17a5.67,5.67,0,0,0-.51-5.92c-1.51-1.9-3-2.56-2.12-5.2.73-2.18,2.49-3.9,3-6.19a5.8,5.8,0,0,0-9.86-5.25c-.67.69-1.2,1.58-2.09,1.94a3.36,3.36,0,0,1-2.43-.13,29.76,29.76,0,0,1-4-2.17,6.51,6.51,0,0,0-4.35-1,5.09,5.09,0,0,0-3.19,2.45,10.07,10.07,0,0,0-1.2,3.92c-.17,1.36-.24,2.86-1.15,3.89-1.27,1.43-3.55,1.33-5.17,2.35a5.9,5.9,0,0,0-1.82,2,10.93,10.93,0,0,0-.5,10.49Z" style="fill:#5753F6"></path><path d="M422.61,305.63c.6-2.27,4.76-1.66,6.68-1.84a9.66,9.66,0,0,0,4.26-1.07,4.93,4.93,0,0,0,2.11-5.36c-.32-1.16-1.08-2.29-.81-3.45.36-1.54,2.22-2.11,3.77-2.41,2.53-.47,4.52-.67,5.78-3.17a5.67,5.67,0,0,0-.51-5.92c-1.51-1.9-3-2.56-2.12-5.2.73-2.18,2.49-3.9,3-6.19a5.8,5.8,0,0,0-9.86-5.25c-.67.69-1.2,1.58-2.09,1.94a3.36,3.36,0,0,1-2.43-.13,29.76,29.76,0,0,1-4-2.17,6.51,6.51,0,0,0-4.35-1,5.09,5.09,0,0,0-3.19,2.45,10.07,10.07,0,0,0-1.2,3.92c-.17,1.36-.24,2.86-1.15,3.89-1.27,1.43-3.55,1.33-5.17,2.35a5.9,5.9,0,0,0-1.82,2,10.93,10.93,0,0,0-.5,10.49Z" style="fill:#fff;opacity:0.5"></path><path d="M415.27,297.53a.49.49,0,0,0,.55-.32c5.61-15.73,22.57-27.37,22.74-27.48a.49.49,0,0,0-.55-.81c-.17.12-17.39,11.93-23.11,28a.49.49,0,0,0,.3.63Z" style="fill:#fff"></path><path d="M436.39,285.05a.49.49,0,0,0,.36-.89c-.26-.16-6.26-3.86-11.59-3.5a.49.49,0,0,0-.46.52.48.48,0,0,0,.52.45c5-.34,10.95,3.32,11,3.35A.37.37,0,0,0,436.39,285.05Z" style="fill:#fff"></path><path d="M421.74,285.77a.48.48,0,0,0,.56-.35c2.31-8.62.66-14.4.59-14.64a.49.49,0,0,0-.94.27c0,.06,1.64,5.79-.59,14.12a.48.48,0,0,0,.35.59Z" style="fill:#fff"></path></g><g id="freepik--plants--inject-114"><path d="M95.33,291.87a10.48,10.48,0,0,1-5.51-4,57.86,57.86,0,0,0-3.62-5.45c-1.25-1.43-2.83-2.55-4.06-4s-2.08-3.45-1.48-5.25A10.08,10.08,0,0,1,82.87,270a4.37,4.37,0,0,0,1.32-3.48,3.31,3.31,0,0,0-.66-1.39c-1.13-1.53-3-2.37-4.65-3.23s-3.47-1.87-4.33-3.58c-2.07-4.1,3.35-5.55,5.5-7.75,1.36-1.4,1.2-3.07.69-4.77a10.26,10.26,0,0,1-.34-5.73c1.35-5.16,8-5.53,11.47-2.23,1.3,1.24,2.44,3.49,4.23,4,3.84,1.19,8.39-2.51,11.07,2.1a7.14,7.14,0,0,1,1,4.28c-.2,1.27-.83,2.39-.85,3.74a4.35,4.35,0,0,0,1.17,3.26c1.28,1.24,3.35,1.27,4.75,2.37,1.93,1.53,1.87,4.49,1.18,6.86s-1.84,4.73-1.48,7.17,2.31,4.57,3,7c1.31,4.36-2.14,9.55-5.88,11.6C106,292.52,100,293.44,95.33,291.87Z" style="fill:#5753F6"></path><path d="M95.33,291.87a10.48,10.48,0,0,1-5.51-4,57.86,57.86,0,0,0-3.62-5.45c-1.25-1.43-2.83-2.55-4.06-4s-2.08-3.45-1.48-5.25A10.08,10.08,0,0,1,82.87,270a4.37,4.37,0,0,0,1.32-3.48,3.31,3.31,0,0,0-.66-1.39c-1.13-1.53-3-2.37-4.65-3.23s-3.47-1.87-4.33-3.58c-2.07-4.1,3.35-5.55,5.5-7.75,1.36-1.4,1.2-3.07.69-4.77a10.26,10.26,0,0,1-.34-5.73c1.35-5.16,8-5.53,11.47-2.23,1.3,1.24,2.44,3.49,4.23,4,3.84,1.19,8.39-2.51,11.07,2.1a7.14,7.14,0,0,1,1,4.28c-.2,1.27-.83,2.39-.85,3.74a4.35,4.35,0,0,0,1.17,3.26c1.28,1.24,3.35,1.27,4.75,2.37,1.93,1.53,1.87,4.49,1.18,6.86s-1.84,4.73-1.48,7.17,2.31,4.57,3,7c1.31,4.36-2.14,9.55-5.88,11.6C106,292.52,100,293.44,95.33,291.87Z" style="opacity:0.30000000000000004"></path><path d="M105.48,289.83a.5.5,0,0,0,.37-.55c-4.8-33.63-19.87-49.78-20-49.94a.5.5,0,0,0-.71,0,.49.49,0,0,0,0,.7c.15.16,15,16.1,19.76,49.39a.5.5,0,0,0,.57.42Z" style="fill:#fff"></path><path d="M100.22,267.47l.14-.05a.51.51,0,0,0,.17-.69c-5.8-9.7-19-10.28-19.15-10.28a.5.5,0,0,0-.52.48.51.51,0,0,0,.48.52c.13,0,12.82.57,18.33,9.79A.5.5,0,0,0,100.22,267.47Z" style="fill:#fff"></path><path d="M97.26,259.71a.49.49,0,0,0,.37-.55,13.83,13.83,0,0,1,4.53-12.4.5.5,0,0,0,.09-.7.51.51,0,0,0-.7-.09,14.56,14.56,0,0,0-4.91,13.33.5.5,0,0,0,.57.42Z" style="fill:#fff"></path><path d="M76.23,309c-.62-2.33-4.88-1.7-6.85-1.88A9.89,9.89,0,0,1,65,306a5.07,5.07,0,0,1-2.15-5.5c.33-1.18,1.1-2.33.82-3.53-.37-1.58-2.27-2.16-3.86-2.46-2.59-.49-4.63-.69-5.92-3.26a5.81,5.81,0,0,1,.52-6.06c1.55-1.95,3.08-2.62,2.17-5.32-.74-2.24-2.54-4-3.05-6.35a6,6,0,0,1,10.11-5.38c.68.71,1.23,1.62,2.14,2a3.52,3.52,0,0,0,2.49-.13,31.19,31.19,0,0,0,4.09-2.23,6.72,6.72,0,0,1,4.46-1,5.23,5.23,0,0,1,3.27,2.5,10.46,10.46,0,0,1,1.23,4c.17,1.4.25,2.93,1.18,4,1.3,1.47,3.63,1.36,5.29,2.41a6.17,6.17,0,0,1,1.87,2,11.2,11.2,0,0,1,.51,10.75Z" style="fill:#455a64"></path><path d="M83.75,300.7a.51.51,0,0,1-.57-.33c-5.74-16.11-23.12-28-23.29-28.15a.51.51,0,0,1-.14-.7.5.5,0,0,1,.7-.13c.18.12,17.82,12.22,23.67,28.65a.49.49,0,0,1-.3.64Z" style="fill:#fff"></path><path d="M62.1,287.91a.5.5,0,0,1-.52-.22.51.51,0,0,1,.16-.69c.26-.16,6.42-3.95,11.88-3.58a.49.49,0,0,1,.46.53.5.5,0,0,1-.53.47c-5.14-.35-11.22,3.39-11.28,3.43A.49.49,0,0,1,62.1,287.91Z" style="fill:#fff"></path><path d="M77.12,288.65a.5.5,0,0,1-.58-.36c-2.36-8.82-.67-14.75-.6-15a.5.5,0,0,1,.62-.33.49.49,0,0,1,.34.62c0,.05-1.68,5.92.61,14.45a.51.51,0,0,1-.36.62Z" style="fill:#fff"></path></g></g><g id="freepik--Floor--inject-114"><g id="freepik--floor--inject-114"><ellipse id="freepik--floor--inject-114" cx="251.61" cy="368.44" rx="223.64" ry="114.29" style="fill:#5753F6"></ellipse><path d="M231.34,342.45l-4.06,2.35L408.92,449.67l.83-.41c1.17-.6,2.31-1.21,3.45-1.81Z" style="fill:#fff"></path><path d="M73.44,437.52,364.19,269.66c-1.79-.54-3.6-1.06-5.41-1.57L69.75,435C71,435.82,72.18,436.68,73.44,437.52Z" style="fill:#fff"></path></g></g><g id="freepik--Shadow--inject-114"><ellipse id="freepik--shadow--inject-114" cx="205.94" cy="389.5" rx="53.62" ry="29.55" style="opacity:0.1"></ellipse></g><g id="freepik--Character--inject-114"><g id="freepik--Ball--inject-114"><circle cx="355.71" cy="113.11" r="13.56" transform="translate(38.52 309.86) rotate(-49.45)" style="fill:#5753F6"></circle><path d="M351.82,106.65l-.06,0a7.86,7.86,0,0,0-3.58,3.26c-.73,1.1-1.16,1.68-2.17,1.77a3.2,3.2,0,0,1-2.5-.68,4.14,4.14,0,0,1-.92-1.29,14.06,14.06,0,0,0-.34,1.81,3.58,3.58,0,0,0,.43.44,4.47,4.47,0,0,0,3.44,1c1.66-.14,2.4-1.25,3.12-2.33a6.59,6.59,0,0,1,3-2.8,6.47,6.47,0,0,1,6.72,2c1.9,2.27,3.25,6,.8,9.14a5.49,5.49,0,0,1-3.58,1.82,7.92,7.92,0,0,0-2.53.87c-1.4.86-2.09,2.26-2.19,4.36.41.14.82.25,1.24.35,0,0,0-.09,0-.14.07-2.26.89-3,1.6-3.49a7.38,7.38,0,0,1,2.14-.71,6.66,6.66,0,0,0,4.3-2.27c2.92-3.71,1.39-8.11-.82-10.74A7.69,7.69,0,0,0,351.82,106.65Z" style="fill:#fff"></path><path d="M364.17,107a10.55,10.55,0,0,1-1.39-5.44c-.38-.24-.78-.45-1.18-.65A11.95,11.95,0,0,0,369.27,113a12.77,12.77,0,0,0-.09-1.37A10,10,0,0,1,364.17,107Z" style="fill:#fff"></path></g><g id="freepik--character--inject-114"><path d="M276.78,225.54s-5.84-24-7.42-28.88c-1.69-5.17-3-7.35-4.78-9.44,0,0-16.14-21-20-24.94-4.82-4.95-6.79-7.27-10.49-8.62-2-.76-4.12-1.06-10.39-2-7.75,1.44-6.2,21.31-1.28,24.79,3.14,2.23,7.88,5.54,10.87,2.91l0-2.85,21.48,20.88S266.19,224.9,266,227.54s-2.64,6.26-3.32,9.56c-.45,2.23-.24,4.5-1,6.65-.2.54-.35,1.31.18,1.52a.84.84,0,0,0,.47,0,4.42,4.42,0,0,0,3-2.63c.58-1.11.61-1.95,1.19-3a25.54,25.54,0,0,1-.14,6.4c-.12,1.39-.17,3-.31,4.21-.27,2.34,3.1,2.9,5.26,2.18a8.11,8.11,0,0,0,4.75-4.12C280.41,241,276.78,225.54,276.78,225.54Z" style="fill:#b16668"></path><path d="M233.32,176.5a45.22,45.22,0,0,1-6.77-6.55s2.14,6.47,6.76,8.38Z" style="fill:#9a4a4d"></path><path d="M148.17,154.59c-1.92.58-3.64.56-6.78,2.23s-4.92,3.48-4.92,4.35,2.44.79,5.87-.11S148.17,154.59,148.17,154.59Z" style="fill:#9a4a4d"></path><path d="M198.84,149.76c-7.79-.35-9.88,2.31-19.86,10.5S156,179.52,156,179.52l4.54,13.92s23.12-16.33,31.36-21.78,11.3-7.13,11.3-7.13Z" style="fill:#b16668"></path><path d="M146.77,170.87c1.68,6,2,15.41,5.49,20.88,3.33,5.28,6.08,4.33,13.85-3,4.26-4-2.9.08-3-7.95-1.46-5.32-5.35-11.27-6.4-14.16C155.45,163.09,146.77,170.87,146.77,170.87Z" style="fill:#b16668"></path><path d="M161,175.35c1.64,4,2.57,7.11,2.48,11.2a17.81,17.81,0,0,0-1-12.42Z" style="fill:#9a4a4d"></path><path d="M156.57,176a1.12,1.12,0,0,1-.09,1.24,3.93,3.93,0,0,1-3.14,1.6,1.35,1.35,0,0,1-1.2-.54h0l-15.6-30.14,4.46-2.23Z" style="fill:#455a64"></path><path d="M154.86,178.51a3.53,3.53,0,0,1-1.52.32,1.35,1.35,0,0,1-1.2-.54h0l-15.6-30.14,2-1Z" style="fill:#37474f"></path><path d="M140.83,147.13a3.91,3.91,0,0,1-3.14,1.61c-1.13-.05-1.56-.85-1-1.79a3.91,3.91,0,0,1,3.14-1.61C141,145.39,141.43,146.19,140.83,147.13Z" style="fill:#263238"></path><path d="M141.16,148.6a1.07,1.07,0,0,1-1.45-.46c-4.43-8.54-5.44-18.67-5.92-23.53l-.1-.91a1.1,1.1,0,0,1,1-1.19,1.08,1.08,0,0,1,1.18,1l.09.91c.48,4.74,1.46,14.58,5.69,22.76A1.07,1.07,0,0,1,141.16,148.6Z" style="fill:#455a64"></path><path d="M131,138.41a6.81,6.81,0,0,1-3.5.75c-4.87-.22-10.3-5.21-14.5-13.33-6.35-12.28-7.86-27.32-3.42-34.24a7.2,7.2,0,0,1,6.6-3.71c4.87.23,10.29,5.21,14.5,13.34,6.35,12.27,7.86,27.31,3.42,34.23A8.1,8.1,0,0,1,131,138.41Zm-16.83-46.9a5,5,0,0,0-1.87,1.83c-3.74,5.83-2.1,20,3.57,31,3.56,6.87,8.19,11.42,11.78,11.59a4.06,4.06,0,0,0,3.72-2.22c3.74-5.84,2.11-20-3.57-31-3.55-6.88-8.18-11.43-11.77-11.59A3.63,3.63,0,0,0,114.12,91.51Z" style="fill:#5753F6"></path><g style="opacity:0.30000000000000004"><path d="M131,138.41a6.81,6.81,0,0,1-3.5.75c-4.87-.22-10.3-5.21-14.5-13.33-6.35-12.28-7.86-27.32-3.42-34.24a7.2,7.2,0,0,1,6.6-3.71c4.87.23,10.29,5.21,14.5,13.34,6.35,12.27,7.86,27.31,3.42,34.23A8.1,8.1,0,0,1,131,138.41Zm-16.83-46.9a5,5,0,0,0-1.87,1.83c-3.74,5.83-2.1,20,3.57,31,3.56,6.87,8.19,11.42,11.78,11.59a4.06,4.06,0,0,0,3.72-2.22c3.74-5.84,2.11-20-3.57-31-3.55-6.88-8.18-11.43-11.77-11.59A3.63,3.63,0,0,0,114.12,91.51Z"></path></g><path d="M139.37,151.26a1.1,1.1,0,0,1-1.46-.46c-4.16-8.05-9.36-10.63-12.15-12l-.52-.27a1.08,1.08,0,1,1,1-1.92l.51.25c2.8,1.39,8.62,4.28,13.11,13A1.09,1.09,0,0,1,139.37,151.26Z" style="fill:#37474f"></path><path d="M155.6,164.46a4.38,4.38,0,0,0-2.3-2.28.81.81,0,0,1-.39-.23.83.83,0,0,1-.1-.34,2.71,2.71,0,0,0-1.41-1.93,1.21,1.21,0,0,1-.6-.43,1.26,1.26,0,0,1-.08-.47,2.51,2.51,0,0,0-1.56-2,3.53,3.53,0,0,0-2.62.29c-1.3.42-2.62.81-3.95,1.15-1.6.59-3.3,1-4.83,1.71-.6.29-1.13.59-1.29,1.27a2,2,0,0,0,.65,2c.39.31.94.52,1.07,1a1.67,1.67,0,0,1,0,.59,2.85,2.85,0,0,0,.18,1.39,1.59,1.59,0,0,0,1,.9,1.69,1.69,0,0,1,.5.14c.37.23.29.77.39,1.2a2.06,2.06,0,0,0,1.51,1.32,2,2,0,0,1,.71.31c.38.33.37.92.6,1.37a1.85,1.85,0,0,0,1.34.89,11.66,11.66,0,0,0,4.37-.58,44.2,44.2,0,0,0,5.26-1.46,3.46,3.46,0,0,0,2.29-2.19,4,4,0,0,0-.17-1.88A9.2,9.2,0,0,0,155.6,164.46Z" style="fill:#b16668"></path><path d="M156.72,166.61c-.41-3.18-.47-5.42-1.76-7.56s-2.51-4.45-3.91-5.2-2.19.43-4.78,2c-2,1.2-4.2,2-2.16,3.22s5.74-.71,5.74-.71Z" style="fill:#b16668"></path><path d="M143.25,158c1.16,3.36,6.42.11,6.45.08s.31.83.32.92a1.56,1.56,0,0,1-.36,1,1.28,1.28,0,0,0-.24.32s0,0,0,.06.07.05.11.05a9.77,9.77,0,0,1,1.53,0,1.82,1.82,0,0,1,1.37.9,1.46,1.46,0,0,1,0,1.21,1.84,1.84,0,0,1-.83.89c-.14.08-.32.23-.22.35a4,4,0,0,1,1.74-.15,2.32,2.32,0,0,1,1.16.49,1.28,1.28,0,0,1,.47,1.13,1.54,1.54,0,0,1-.63.93c-.31.23-.66.4-1,.61-.06,0-.14.13-.09.19a.17.17,0,0,0,.12,0h.8a3.79,3.79,0,0,1,.89.09c1.08.31,1.39,1.46.43,2.38a1.75,1.75,0,0,0,.89-1.15,2,2,0,0,0-.22-1.18,1.87,1.87,0,0,0-.75-.87.45.45,0,0,1-.13-.1c-.08-.12,0-.27.08-.39a1.63,1.63,0,0,0,.19-1.22,2,2,0,0,0-.67-1.07,3.18,3.18,0,0,0-1.17-.7l-.1,0a.29.29,0,0,1-.05-.31,3.33,3.33,0,0,0,.05-1.09,1.83,1.83,0,0,0-.44-1,3,3,0,0,0-1.75-.72.57.57,0,0,1-.45-.24.8.8,0,0,1,0-.41,2,2,0,0,0-.28-1c-.05-.09-.34-.71-.52-.6,0,0-.59.36-2,1S144,159.65,143.25,158Z" style="fill:#9a4a4d"></path><path d="M235.56,213c-1.85-7.72-4.36-12-4.27-15.65l-33.12,6c-26,15.93-47.2,14.73-45.8,24.16,7.5,24.42,56.43,42,81.78,34.49C241.46,260,239.59,229.87,235.56,213Z" style="fill:#e6e6e6"></path><path d="M187.11,258.69l.86-3.75s21.4-21.6,25.2-39.19c0,0-1.26,14.09-9.47,25.52A81.29,81.29,0,0,1,187.11,258.69Z" style="fill:#e0e0e0"></path><path d="M195.62,210.38c-7.83,4.05-27.26,8.77-41.7,25.23,0,0,6.07,10,13,14.17l31.3-37.24Z" style="fill:#f0f0f0"></path><path d="M209.91,221.45c-3.37,13.49-11.74,25.5-22.8,37.24,0,0,9.31,5,18.62,5.08.54-.9,20.21-28,16.2-39.55C220.6,220.39,209.91,221.45,209.91,221.45Z" style="fill:#f0f0f0"></path><path d="M204.11,284.74a69.86,69.86,0,0,0,.73,12c.56,24.62,2.78,30.53,4.74,47.66.21,1.92.33,3.56.34,4.81.05,1.59.52,15.78,1,19.38.64,5.28,9.31,5.91,10.33-.14.67-4,.4-16.84.42-18.79,0,0,0-1.36.06-3,.42-7.62,2.52-22.22,4-35.41,1.11-9.95-.67-15-1.62-20.15,0,0,20.13-56.83,8.85-83.25l-23.52.75s-3.95,32.62-4.67,59.28C204.52,275.56,204.33,281,204.11,284.74Z" style="fill:#b16668"></path><path d="M223.39,356.59a37.08,37.08,0,0,1,.83,5.8c-.13,2.48-.67,5.11-.22,7,.37,1.49,1.17,8-.14,12.8s-3.26,6.15-6.88,6.45c-3.81.32-7.12-2.21-7.64-4.24s-1.44-6.5-1.44-6.5Z" style="fill:#455a64"></path><path d="M223.75,370.05c-.89-4.58-.18-8-.36-13.46a22,22,0,0,0-.68-4.79h0a31.12,31.12,0,0,1-.41-3.56c-.09-.88,0-1.39-.62-1.59-.07,1.54-.06,2.93-.05,4.09,0,2-.42,3.22-.5,2.94-.14-.55,0-2.25-.35-2.57-.87-.83-1.46.31-5.27.37-2.69,0-5.66-1.7-6.12-.82s.11,1.91.15,3.2c-.09.84-.25,2.54-.32,3.23-.38,4-.79,5.83-1.47,11-.67,5.05-.36,10.7,2.05,15.6s9.4,3.61,11.44.69S224.73,375.09,223.75,370.05Z" style="fill:#f0f0f0"></path><path d="M221.13,353.68c-.38,2.15-1,2.77-.89,6.43s.62,11.2-.5,13.07,1,2.72,1.71,1.64,1.31-4.3,1-7.79-.69-7.34-.78-9.21A33.83,33.83,0,0,0,221.13,353.68Z" style="fill:#e0e0e0"></path><path d="M210.85,360.07c0-3.66-1-4.07-1.34-6.6h0c0,.13,0,.26,0,.39-.09.84-.25,2.54-.32,3.23-.21,2.24-.44,3.81-.71,5.68-.09,1.33-.17,2.73-.25,4.08-.21,3.5.48,6.71,1.23,7.76s2.59.29,1.66-1.69C210.37,371.25,210.86,363.73,210.85,360.07Z" style="fill:#e0e0e0"></path><path d="M221.24,384.42c1.58-2.25,2.8-6.6,2.82-10.79-.05.71-.34,4.05-2,5.22-1.87,1.32-3.56.74-3.67-.76A31,31,0,0,1,219,373a8.35,8.35,0,0,0-7.07.1c.6,2.59,1.27,5.61-.3,6-2.51.63-3.94-3.53-4.12-5.63a24.48,24.48,0,0,0,2.34,10.31C212.18,388.58,219.2,387.34,221.24,384.42Z" style="fill:#e0e0e0"></path><path d="M220.6,373.81a.41.41,0,0,1-.21-.05,14.17,14.17,0,0,0-10.08-.25.5.5,0,0,1-.64-.29.5.5,0,0,1,.29-.65,15.29,15.29,0,0,1,10.86.29.5.5,0,0,1,.23.67A.48.48,0,0,1,220.6,373.81Z" style="fill:#455a64"></path><path d="M220.56,370.77a.5.5,0,0,1-.24-.06,12.28,12.28,0,0,0-9.74-.3.52.52,0,0,1-.68-.22.51.51,0,0,1,.23-.68,13.28,13.28,0,0,1,10.67.32.51.51,0,0,1,.2.68A.5.5,0,0,1,220.56,370.77Z" style="fill:#455a64"></path><path d="M220.78,367.74a.45.45,0,0,1-.27-.08c-2.67-1.73-7.7-1.27-10-.2a.5.5,0,1,1-.42-.9c2.55-1.2,8-1.68,11,.26a.5.5,0,0,1,.15.69A.51.51,0,0,1,220.78,367.74Z" style="fill:#455a64"></path><path d="M220.74,364.53a.45.45,0,0,1-.2,0c-2.66-1.13-7.09-1-9.91-.21a.5.5,0,0,1-.61-.36.5.5,0,0,1,.35-.61c3.06-.81,7.67-1,10.56.26a.5.5,0,0,1-.19,1Z" style="fill:#455a64"></path><path d="M220.69,361.52a.48.48,0,0,1-.26-.07c-2.28-1.37-7.29-1.48-9.75-.22A.5.5,0,0,1,210,361a.49.49,0,0,1,.22-.67c2.75-1.41,8.16-1.28,10.72.25a.51.51,0,0,1,.17.69A.52.52,0,0,1,220.69,361.52Z" style="fill:#455a64"></path><path d="M220.65,358.72a.47.47,0,0,1-.3-.1c-2.1-1.57-7.68-1.5-9.34-.24a.51.51,0,0,1-.7-.1.5.5,0,0,1,.1-.7c2-1.48,8.05-1.61,10.54.24a.5.5,0,0,1-.3.9Z" style="fill:#455a64"></path><path d="M198.54,203.61c-8.38,3.89-32.9,23.47-40.6,31.06-6.14,6-5,12.17-3.41,18.41,2.07,8.29,4.81,17.79,6.79,24,3.52,11.14,7.43,22.68,10.08,31.36,1,3.35,4.76,8,6.93,6.44,1.86-1.38,2.28-8.86,2.28-8.86s.4-4.13.34-16.88c-.1-20.29-.93-25.56-7.47-36.78,18.82-10.66,34.3-21.2,39.09-26.67Z" style="fill:#b16668"></path><path d="M186.83,309.14c.57.72,1.57,2.23,1.44,3.05a45.72,45.72,0,0,0-1.94,9.39c-.22,3.86,1.28,11.17-2.43,16.42s-6.37,5.59-9,6.05a6.75,6.75,0,0,1-6-1.52s-2.36-2.17-1.27-3.8S186.83,309.14,186.83,309.14Z" style="fill:#455a64"></path><path d="M187.07,309.49c-.17-1.27-2-3.89-3.14-5.87s-1.92-3.1-3.07-3l-.07,2.3a5.92,5.92,0,0,1-.55,1.56,7.8,7.8,0,0,0-.13,3.23,4.75,4.75,0,0,1-.64,2.76c-.06-2-.11-4.29-1.42-4.29-.87,0-2.49,1.18-4.28,1.42s-3.21-.16-3.91.09-.32,1.15.1,3.21a33.7,33.7,0,0,1,.86,7.11h0c-.18,1.89-.41,3.85-.71,5.72-1.18,7.19-3.85,10.87-3.32,14.75.56,4,6.88,5.55,11.5,2.13,7.86-5.82,6.34-11.82,6.28-16.24a28.72,28.72,0,0,1,.91-8.47C186.2,313.34,187,312,187.07,309.49Z" style="fill:#f0f0f0"></path><path d="M182.14,306.56c-.34-1.42.49-3.14.58-4.82-.6-.76-1.16-1.17-1.86-1.1l-.07,2.3a5.92,5.92,0,0,1-.55,1.56,7.8,7.8,0,0,0-.13,3.23,4.75,4.75,0,0,1-.64,2.76c-.53,4.34.17,9-.82,13.18-.94,4-1.8,5.17-.89,5.77s2.21.18,3.17-4.4.48-7.41.48-11S182.62,308.61,182.14,306.56Z" style="fill:#e0e0e0"></path><path d="M180.05,333.53c-2.42,1.35-3.85,1-3.77-1.36a11.62,11.62,0,0,1,1.51-4.73l-6.24.17s.34,4.31-.93,5.32c-.78.63-1.84-.38-2.45-1.66-.93,2.82-1.69,5-1.38,7.23.56,4,6.88,5.55,11.5,2.13,6.58-4.87,6.59-9.87,6.38-14C184.72,329.14,182.45,332.17,180.05,333.53Z" style="fill:#e0e0e0"></path><path d="M170.45,310.92a57.57,57.57,0,0,1,.37,7.11c-.18,1.89-.41,3.85-.71,5.72-.21,1.23-.45,2.35-.72,3.39a3.43,3.43,0,0,0,.55,1.64c.79.71,1.64.7,1.61-1.17s-.24-11.93-1.1-16.69Z" style="fill:#e0e0e0"></path><path d="M178.93,328.34h-.08a29.08,29.08,0,0,0-8.3,0,.51.51,0,0,1-.57-.42.49.49,0,0,1,.41-.57,29.36,29.36,0,0,1,8.63,0,.5.5,0,0,1-.09,1Z" style="fill:#455a64"></path><path d="M170.73,325.38a.5.5,0,0,1-.47-.34.5.5,0,0,1,.31-.63,14.82,14.82,0,0,1,9.24,0,.5.5,0,1,1-.34.94,14.1,14.1,0,0,0-8.57,0A.51.51,0,0,1,170.73,325.38Z" style="fill:#455a64"></path><path d="M170.74,322.58a.5.5,0,0,1-.46-.3.51.51,0,0,1,.25-.66,14.35,14.35,0,0,1,9.67-.52.5.5,0,0,1,.32.64.5.5,0,0,1-.63.31,13.61,13.61,0,0,0-8.95.48A.49.49,0,0,1,170.74,322.58Z" style="fill:#455a64"></path><path d="M170.74,319.61a.51.51,0,0,1-.44-.26.49.49,0,0,1,.19-.68c4.49-2.5,9.5-.88,9.71-.81a.5.5,0,0,1,.32.63.49.49,0,0,1-.63.32s-4.82-1.54-8.91.73A.44.44,0,0,1,170.74,319.61Z" style="fill:#455a64"></path><path d="M170.82,316.46a.52.52,0,0,1-.43-.24.5.5,0,0,1,.17-.69c4.29-2.63,9.67-.94,9.9-.86a.5.5,0,0,1,.32.63.51.51,0,0,1-.63.32c-.05,0-5.17-1.63-9.07.76A.5.5,0,0,1,170.82,316.46Z" style="fill:#455a64"></path><path d="M170.65,313.75a.51.51,0,0,1-.43-.25.5.5,0,0,1,.18-.68,12.61,12.61,0,0,1,9.83-.82.5.5,0,0,1,.28.65.49.49,0,0,1-.65.27,11.73,11.73,0,0,0-9,.76A.59.59,0,0,1,170.65,313.75Z" style="fill:#455a64"></path><path d="M233.3,179.35c-13.74-2.49-12.94-20.91-9.59-27.7l-4.54-.47-20.33-1.42c-1.89,3-5.3,5.14-11.47,16-3.05,5.33-5.3,12.91,3.18,18.4L197,198.24l1.13,5.14c16.05,2.48,30.21,3.26,33.12-6C231.29,197.38,233.5,186.42,233.3,179.35Z" style="fill:#455a64"></path><path d="M200.14,184.08s3.32,4.72,11.17,4.09,11.16-7.69,11.16-7.69-1,8.71-9.82,9.72C202.09,191.41,200.14,184.08,200.14,184.08Z" style="fill:#37474f"></path><path d="M234.15,262c1.6-1,5-3.39-8.52-13.12-2.7-1.94-7.82-4-13.41-6.94-22.43-11.79-60.66-28.1-59.85-14.43,0,0-1-4.44,2.65-6.83a74.66,74.66,0,0,1,20.66-10.33c7.28-2.46,15.59-3.64,22.49-7L197,198.24c1.15,1.65,21.64,13.18,34.25-.86l.82,4.5a103.48,103.48,0,0,1,5.56,16.68C239.81,227.63,244.39,259.54,234.15,262Z" style="fill:#ebebeb"></path><path d="M230.41,202.9s2.3,4.69,4.73,15.78,2.11,26-2.23,36.26H230.5s4.7-20.91,3-31.18a196,196,0,0,0-4.37-19.71" style="fill:#e0e0e0"></path><path d="M219.8,207.14h-.73a55.11,55.11,0,0,1-3.71,17c-3.22,7.88-7,17.61-7,17.61l2.88-.3s5.3-10.34,7.09-17C220.3,217.07,220.4,209,219.8,207.14Z" style="fill:#e0e0e0"></path><path d="M179.64,228.92l4.19-.64a119.54,119.54,0,0,1,15.64-11.39,18.74,18.74,0,0,0,8.88-12.21s-5.15,7.36-17.42,13.54C182,222.71,179.64,228.92,179.64,228.92Z" style="fill:#e0e0e0"></path><path d="M229.71,202.9s6.62,17.8,4.94,33-4.15,19.07-4.15,19.07c-4.5-3-10.29-6.62-17.73-10.8,0,0,14-16.86,9.38-38.57Z" style="fill:#f5f5f5"></path><path d="M218.9,205.94s2.88,16.09-10.55,35.81c-6.54-3.13-13.24-6.78-21.85-10.19,0,0,22.85-12,25.72-24.79Z" style="fill:#f5f5f5"></path><path d="M207.39,205.24s-1.07,6.35-9.79,11.09c-8.3,4.5-18,12.59-18,12.59s-12.57-5.18-20.68-4.42c0,0,7.79-6.61,22.23-11.57,14.73-5.06,19.14-7.07,20-8.88Z" style="fill:#f5f5f5"></path><path d="M197,198.24s.2,3.66,1.13,5.14c0,0,8.77,5.9,18.49,4.93s13.89-3.9,15.45-6.43a8.78,8.78,0,0,0-.82-4.5s-3.7,4.74-14.63,5.52C204.48,203.76,197,198.24,197,198.24Z" style="fill:#5753F6"></path><path d="M196.23,95.67c-2.31-1.2-5-1.14-7.64-1l-6.85.24c-3.78.13-6.66-.72-8.89-4a60.79,60.79,0,0,1-3.39-6.63,7.74,7.74,0,0,0-2.22-2.89,5.69,5.69,0,0,0-6.59.46,10.53,10.53,0,0,0-3.47,6c-1.42,6,.5,12.87,5.39,16.61,6,4.58,15.44,4.57,22.27,2.06,3.41-1.26,7-3.24,10.45-2.15,1.86.58,4.29,2.36,5.16-.35C201.38,101.14,198.74,97,196.23,95.67Z" style="fill:#263238"></path><path d="M211.79,141.46h0a22.31,22.31,0,0,1-22.32-22.31V117.7a20.64,20.64,0,0,1,20.64-20.64h3.35A20.64,20.64,0,0,1,234.1,117.7v1.45A22.31,22.31,0,0,1,211.79,141.46Z" style="fill:#263238"></path><path d="M226.24,107.57c2.34,2.15,5.27,6.82,5,20.48-.2,11.57-3.79,14.45-5.59,15.29s-5.3.35-8.7-.22v8.34s-.5,2.81-3.88,6.31a9.06,9.06,0,0,1-11.26,1.46c-2.85-1.66.48-9,.48-9l-.15-15.54s-2,2-5.39-1c-2.8-2.52-3.77-6.81-1.6-9.12a4.77,4.77,0,0,1,7.75,1.56A34.79,34.79,0,0,0,217,121.86C223.82,118,225.49,112,226.24,107.57Z" style="fill:#b16668"></path><path d="M226.48,124.64a1.43,1.43,0,0,0,1.32,1.52,1.44,1.44,0,0,0,1.47-1.39,1.4,1.4,0,1,0-2.79-.13Z" style="fill:#263238"></path><path d="M215.39,124.64a1.43,1.43,0,0,0,1.32,1.52,1.44,1.44,0,0,0,1.47-1.39,1.41,1.41,0,0,0-1.32-1.51A1.43,1.43,0,0,0,215.39,124.64Z" style="fill:#263238"></path><path d="M217.08,134.52l3.83,1.25a2,2,0,0,1-2.48,1.45A2.21,2.21,0,0,1,217.08,134.52Z" style="fill:#9a4a4d"></path><path d="M229.83,120.33l-2.84-2a1.62,1.62,0,0,1,2.35-.51A1.94,1.94,0,0,1,229.83,120.33Z" style="fill:#263238"></path><path d="M203,124.71l0,4.89a2.29,2.29,0,0,0,2.38-2.33A2.53,2.53,0,0,0,203,124.71Z" style="fill:#263238"></path><polygon points="222.32 123.26 222.29 132.74 226.71 131.29 222.32 123.26" style="fill:#9a4a4d"></polygon><path d="M217,143.12c-3.57-.47-10.94-2.63-12.1-5.65a7.87,7.87,0,0,0,2.6,3.85c2.2,2,9.48,4.13,9.48,4.13Z" style="fill:#9a4a4d"></path></g></g></svg>