<svg width="41" height="14" viewBox="0 0 41 14" fill="none" xmlns="http://www.w3.org/2000/svg">
<path d="M2.90234 12.0938C1.91797 12.0938 1.21875 11.8418 0.804688 11.3379C0.394531 10.834 0.189453 10.0938 0.189453 9.11719V6.41016C0.189453 5.67578 0.267578 5.06445 0.423828 4.57617C0.580078 4.08789 0.853516 3.72266 1.24414 3.48047C1.63477 3.23828 2.17773 3.11719 2.87305 3.11719C3.35742 3.11719 3.79102 3.20312 4.17383 3.375C4.56055 3.54688 4.86523 3.79883 5.08789 4.13086C5.31055 4.46289 5.42188 4.86914 5.42188 5.34961V6.69141H3.2832V5.46094C3.2832 5.25781 3.25391 5.08789 3.19531 4.95117C3.13672 4.81055 3.00977 4.74023 2.81445 4.74023C2.4707 4.74023 2.29883 4.98438 2.29883 5.47266V9.73242C2.29883 9.91211 2.33789 10.0781 2.41602 10.2305C2.49414 10.3789 2.62305 10.4531 2.80273 10.4531C2.98633 10.4531 3.11328 10.3809 3.18359 10.2363C3.25781 10.0879 3.29492 9.91602 3.29492 9.7207V8.24414H5.42188V9.7793C5.42188 10.2637 5.3125 10.6797 5.09375 11.0273C4.87891 11.3711 4.58203 11.6348 4.20312 11.8184C3.82422 12.002 3.39062 12.0938 2.90234 12.0938ZM8.70898 12.0938C6.95898 12.0938 6.08398 11.1855 6.08398 9.36914V5.8418C6.08398 5.01367 6.31641 4.35352 6.78125 3.86133C7.24609 3.36523 7.88867 3.11719 8.70898 3.11719C9.5332 3.11719 10.1777 3.36523 10.6426 3.86133C11.1074 4.35352 11.3398 5.01367 11.3398 5.8418V9.36914C11.3398 11.1855 10.4629 12.0938 8.70898 12.0938ZM8.70898 10.4766C8.88477 10.4766 9.00977 10.4141 9.08398 10.2891C9.16211 10.1602 9.20117 9.99805 9.20117 9.80273V5.50781C9.20117 4.99609 9.03711 4.74023 8.70898 4.74023C8.38086 4.74023 8.2168 4.99609 8.2168 5.50781V9.80273C8.2168 9.99805 8.25391 10.1602 8.32812 10.2891C8.40625 10.4141 8.5332 10.4766 8.70898 10.4766ZM12.1191 13.4648V3.21094H14.252V4.14844C14.3809 3.82422 14.5586 3.57227 14.7852 3.39258C15.0156 3.20898 15.3438 3.11719 15.7695 3.11719C16.3438 3.11719 16.748 3.32617 16.9824 3.74414C17.2207 4.16211 17.3398 4.70898 17.3398 5.38477V9.70898C17.3398 10.1582 17.2754 10.5645 17.1465 10.9277C17.0215 11.2871 16.8223 11.5723 16.5488 11.7832C16.2793 11.9902 15.9258 12.0938 15.4883 12.0938C14.918 12.0938 14.5059 11.75 14.252 11.0625V13.4648H12.1191ZM14.75 10.459C14.9688 10.459 15.0996 10.3496 15.1426 10.1309C15.1895 9.91211 15.2129 9.64258 15.2129 9.32227V5.88867C15.2129 5.56445 15.1895 5.29492 15.1426 5.08008C15.0996 4.86133 14.9688 4.75195 14.75 4.75195C14.5234 4.75195 14.3828 4.86328 14.3281 5.08594C14.2773 5.30469 14.252 5.57227 14.252 5.88867V9.32227C14.252 9.63867 14.2773 9.9082 14.3281 10.1309C14.3828 10.3496 14.5234 10.459 14.75 10.459ZM18.1426 12V3.21094H20.2754V4.18945C20.377 3.84961 20.5566 3.58398 20.8145 3.39258C21.0723 3.20117 21.3965 3.10547 21.7871 3.10547V4.85742C21.6152 4.85742 21.4102 4.87695 21.1719 4.91602C20.9336 4.95117 20.7246 5.00195 20.5449 5.06836C20.3652 5.13086 20.2754 5.20117 20.2754 5.2793V12H18.1426ZM23.9023 12.0938C23.4141 12.0938 23.041 11.9805 22.7832 11.7539C22.5293 11.5273 22.3555 11.2168 22.2617 10.8223C22.168 10.4277 22.1211 9.98047 22.1211 9.48047C22.1211 8.94531 22.1738 8.50781 22.2793 8.16797C22.3848 7.82422 22.5645 7.54297 22.8184 7.32422C23.0762 7.10547 23.4297 6.91992 23.8789 6.76758L25.1797 6.32227V5.41992C25.1797 4.94727 25.0254 4.71094 24.7168 4.71094C24.4355 4.71094 24.2949 4.90234 24.2949 5.28516V5.8125H22.2559C22.252 5.78125 22.25 5.74219 22.25 5.69531C22.25 5.64453 22.25 5.58789 22.25 5.52539C22.25 4.65039 22.4551 4.03125 22.8652 3.66797C23.2793 3.30078 23.9336 3.11719 24.8281 3.11719C25.2969 3.11719 25.7168 3.20117 26.0879 3.36914C26.459 3.5332 26.752 3.77734 26.9668 4.10156C27.1855 4.42578 27.2949 4.82617 27.2949 5.30273V12H25.209V10.957C25.1074 11.3242 24.9395 11.6055 24.7051 11.8008C24.4707 11.9961 24.2031 12.0938 23.9023 12.0938ZM24.7285 10.4648C24.9004 10.4648 25.0176 10.3926 25.0801 10.248C25.1426 10.1035 25.1738 9.94727 25.1738 9.7793V7.33008C24.8848 7.44727 24.6602 7.5957 24.5 7.77539C24.3398 7.95117 24.2598 8.21094 24.2598 8.55469V9.68555C24.2598 10.2051 24.416 10.4648 24.7285 10.4648ZM29.9082 12.0938C29.3418 12.0938 28.959 11.9746 28.7598 11.7363C28.5645 11.4941 28.4668 11.125 28.4668 10.6289V5.15039H27.875V3.55078H28.4668V1.6875H30.5059V3.55078H31.0977V5.15039H30.5059V10.1367C30.5059 10.2812 30.5293 10.3828 30.5762 10.4414C30.623 10.5 30.7129 10.5293 30.8457 10.5293C30.9395 10.5293 31.0234 10.5215 31.0977 10.5059V11.9355C31.0508 11.9512 30.9043 11.9805 30.6582 12.0234C30.4121 12.0703 30.1621 12.0938 29.9082 12.0938ZM31.7598 2.67188V0.925781H33.8574V2.67188H31.7598ZM31.7598 12V3.21094H33.8574V12H31.7598ZM34.6895 12V1.6875H36.7637V6.24023L37.7715 3.21094H39.9453L38.627 7.03125L40.3027 12H38.0703L36.7637 7.85742V12H34.6895Z" fill="#5753F6"/>
</svg>
