<svg width="512" height="512" viewBox="0 0 512 512" fill="none" xmlns="http://www.w3.org/2000/svg">
<path d="M30.1174 293.648H36.8939V218.354H30.1174C21.8351 218.354 15.0586 225.13 15.0586 233.412V278.589C15.0586 286.871 21.8351 293.648 30.1174 293.648Z" fill="white"/>
<path d="M496.941 278.589V233.412C496.941 225.13 490.164 218.354 481.882 218.354H475.105V293.648H481.882C490.164 293.648 496.941 286.871 496.941 278.589Z" fill="white"/>
<path d="M67.0119 341.082H82.0708V171.67H67.0119C58.7296 171.67 51.9531 178.446 51.9531 186.729V326.023C51.9531 334.305 58.7296 341.082 67.0119 341.082Z" fill="white"/>
<path d="M429.176 341.082H444.235C452.517 341.082 459.293 334.305 459.293 326.023V186.729C459.293 178.446 452.517 171.67 444.235 171.67H429.176V341.082Z" fill="white"/>
<path d="M168.658 362.918V149.082C168.658 140.8 161.882 134.023 153.599 134.023H112.941C104.658 134.023 97.8818 140.8 97.8818 149.082V362.918C97.8818 371.2 104.658 377.976 112.941 377.976H154.352C162.635 377.976 168.658 371.2 168.658 362.918Z" fill="white"/>
<path d="M399.058 377.976C407.341 377.976 414.117 371.2 414.117 362.918V149.082C414.117 140.8 407.341 134.023 399.058 134.023H357.647C349.364 134.023 342.588 140.8 342.588 149.082V362.918C342.588 371.2 349.364 377.976 357.647 377.976H399.058Z" fill="white"/>
<path d="M183.718 223.623H327.53V294.399H183.718V223.623Z" fill="white"/>
</svg>
