<svg xmlns="http://www.w3.org/2000/svg" viewBox="0 0 500 500"><g id="freepik--background-complete--inject-112"><rect y="382.4" width="500" height="0.25" style="fill:#ebebeb"></rect><rect x="416.78" y="398.49" width="33.12" height="0.25" style="fill:#ebebeb"></rect><rect x="322.53" y="401.21" width="8.69" height="0.25" style="fill:#ebebeb"></rect><rect x="396.59" y="389.21" width="19.19" height="0.25" style="fill:#ebebeb"></rect><rect x="52.46" y="390.89" width="43.19" height="0.25" style="fill:#ebebeb"></rect><rect x="104.56" y="390.89" width="6.33" height="0.25" style="fill:#ebebeb"></rect><rect x="131.47" y="395.11" width="93.68" height="0.25" style="fill:#ebebeb"></rect><path d="M237,337.8H43.91a5.71,5.71,0,0,1-5.7-5.71V60.66A5.71,5.71,0,0,1,43.91,55H237a5.71,5.71,0,0,1,5.71,5.71V332.09A5.71,5.71,0,0,1,237,337.8ZM43.91,55.2a5.46,5.46,0,0,0-5.45,5.46V332.09a5.46,5.46,0,0,0,5.45,5.46H237a5.47,5.47,0,0,0,5.46-5.46V60.66A5.47,5.47,0,0,0,237,55.2Z" style="fill:#ebebeb"></path><path d="M453.31,337.8H260.21a5.72,5.72,0,0,1-5.71-5.71V60.66A5.72,5.72,0,0,1,260.21,55h193.1A5.71,5.71,0,0,1,459,60.66V332.09A5.71,5.71,0,0,1,453.31,337.8ZM260.21,55.2a5.47,5.47,0,0,0-5.46,5.46V332.09a5.47,5.47,0,0,0,5.46,5.46h193.1a5.47,5.47,0,0,0,5.46-5.46V60.66a5.47,5.47,0,0,0-5.46-5.46Z" style="fill:#ebebeb"></path><polygon points="56.11 382.4 28.78 107.44 186.11 135 113.89 382.4 56.11 382.4" style="fill:#f5f5f5"></polygon><polygon points="433.51 382.4 468.5 107.44 186.11 135 113.89 382.4 433.51 382.4" style="fill:#ebebeb"></polygon><polygon points="327.77 155.04 279.28 158.89 271.98 135.12 320.48 131.27 327.77 155.04" style="fill:#f5f5f5"></polygon><polygon points="400.61 150.15 349.99 154.17 342.37 129.35 392.99 125.33 400.61 150.15" style="fill:#f5f5f5"></polygon><path d="M372.43,298.89a3.08,3.08,0,0,1,3.1-3.88,5,5,0,0,1,4.66,3.88,3.09,3.09,0,0,1-3.1,3.88A5,5,0,0,1,372.43,298.89Z" style="fill:#e0e0e0"></path><path d="M358.11,306.34a3.73,3.73,0,0,1,3.75-4.69,6,6,0,0,1,5.63,4.69,3.73,3.73,0,0,1-3.75,4.69A6,6,0,0,1,358.11,306.34Z" style="fill:#e6e6e6"></path><path d="M387.94,300.52a3.73,3.73,0,0,1,3.74-4.69,6,6,0,0,1,5.63,4.69,3.73,3.73,0,0,1-3.75,4.69A6,6,0,0,1,387.94,300.52Z" style="fill:#e6e6e6"></path><path d="M382.75,331a3.73,3.73,0,0,1,3.75-4.69,6,6,0,0,1,5.63,4.69,3.73,3.73,0,0,1-3.75,4.69A6,6,0,0,1,382.75,331Z" style="fill:#e6e6e6"></path><path d="M341.11,331a3.09,3.09,0,0,1,3.11-3.88,5,5,0,0,1,4.65,3.88,3.08,3.08,0,0,1-3.1,3.88A5,5,0,0,1,341.11,331Z" style="fill:#e0e0e0"></path><path d="M308,319.92a3.08,3.08,0,0,1,3.11-3.88,5,5,0,0,1,4.65,3.88,3.09,3.09,0,0,1-3.1,3.88A5,5,0,0,1,308,319.92Z" style="fill:#e0e0e0"></path><path d="M341,311a3.08,3.08,0,0,1,3.1-3.88,5,5,0,0,1,4.66,3.88,3.09,3.09,0,0,1-3.11,3.88A5,5,0,0,1,341,311Z" style="fill:#e0e0e0"></path><ellipse cx="391.05" cy="316.04" rx="3.51" ry="4.29" transform="translate(-105.67 393.96) rotate(-47.86)" style="fill:#e0e0e0"></ellipse><ellipse cx="355.44" cy="317.6" rx="3.51" ry="4.29" transform="translate(-118.54 368.08) rotate(-47.86)" style="fill:#ebebeb"></ellipse><path d="M386.37,288.65a3.08,3.08,0,0,1,3.1-3.88,5,5,0,0,1,4.66,3.88,3.09,3.09,0,0,1-3.11,3.88A5,5,0,0,1,386.37,288.65Z" style="fill:#e0e0e0"></path><path d="M371.28,321.48a3.08,3.08,0,0,1,3.1-3.88,5,5,0,0,1,4.66,3.88,3.09,3.09,0,0,1-3.11,3.88A5,5,0,0,1,371.28,321.48Z" style="fill:#e0e0e0"></path><path d="M333.32,319.92a3.08,3.08,0,0,1,3.1-3.88,5,5,0,0,1,4.66,3.88,3.09,3.09,0,0,1-3.1,3.88A5,5,0,0,1,333.32,319.92Z" style="fill:#e0e0e0"></path><path d="M324.66,327.9a3.73,3.73,0,0,1,3.75-4.69A6,6,0,0,1,334,327.9a3.73,3.73,0,0,1-3.75,4.69A6,6,0,0,1,324.66,327.9Z" style="fill:#e6e6e6"></path><path d="M295.16,332.23a3.72,3.72,0,0,1,3.75-4.68,6,6,0,0,1,5.63,4.68,3.73,3.73,0,0,1-3.75,4.69A6,6,0,0,1,295.16,332.23Z" style="fill:#e6e6e6"></path><path d="M325.19,307.15a3.73,3.73,0,0,1,3.75-4.69,6,6,0,0,1,5.62,4.69,3.72,3.72,0,0,1-3.74,4.68A6,6,0,0,1,325.19,307.15Z" style="fill:#ebebeb"></path><path d="M361.08,331a3.73,3.73,0,0,1,3.75-4.69,6,6,0,0,1,5.63,4.69,3.73,3.73,0,0,1-3.75,4.69A6,6,0,0,1,361.08,331Z" style="fill:#ebebeb"></path><path d="M277.7,297.27a3.09,3.09,0,0,1,3.1-3.88,5,5,0,0,1,4.66,3.88,3.09,3.09,0,0,1-3.1,3.88A5,5,0,0,1,277.7,297.27Z" style="fill:#e0e0e0"></path><path d="M261.24,294.2a3.73,3.73,0,0,1,3.75-4.69,6,6,0,0,1,5.63,4.69,3.73,3.73,0,0,1-3.75,4.69A6,6,0,0,1,261.24,294.2Z" style="fill:#e6e6e6"></path><path d="M285.88,318.89a3.73,3.73,0,0,1,3.75-4.69,6,6,0,0,1,5.63,4.69,3.73,3.73,0,0,1-3.75,4.69A6,6,0,0,1,285.88,318.89Z" style="fill:#e6e6e6"></path><path d="M244.24,318.83a3.09,3.09,0,0,1,3.11-3.88,5,5,0,0,1,4.65,3.88,3.08,3.08,0,0,1-3.1,3.88A5,5,0,0,1,244.24,318.83Z" style="fill:#e0e0e0"></path><path d="M211.14,307.78a3.08,3.08,0,0,1,3.1-3.88,5,5,0,0,1,4.65,3.88,3.08,3.08,0,0,1-3.1,3.88A5,5,0,0,1,211.14,307.78Z" style="fill:#e0e0e0"></path><path d="M226.9,334.85A3.09,3.09,0,0,1,230,331a5,5,0,0,1,4.66,3.88,3.08,3.08,0,0,1-3.1,3.88A5,5,0,0,1,226.9,334.85Z" style="fill:#e0e0e0"></path><path d="M244.13,298.89a3.08,3.08,0,0,1,3.1-3.88,5,5,0,0,1,4.66,3.88,3.09,3.09,0,0,1-3.1,3.88A5,5,0,0,1,244.13,298.89Z" style="fill:#e0e0e0"></path><path d="M254.69,305.46a3.09,3.09,0,0,1,3.1-3.88,5,5,0,0,1,4.66,3.88,3.09,3.09,0,0,1-3.1,3.88A5,5,0,0,1,254.69,305.46Z" style="fill:#ebebeb"></path><path d="M274.41,309.34a3.09,3.09,0,0,1,3.1-3.88,5,5,0,0,1,4.66,3.88,3.09,3.09,0,0,1-3.11,3.88A5,5,0,0,1,274.41,309.34Z" style="fill:#e0e0e0"></path><ellipse cx="240.33" cy="307.78" rx="3.51" ry="4.29" transform="translate(-149.14 279.49) rotate(-47.86)" style="fill:#e0e0e0"></ellipse><path d="M227.79,315.76a3.73,3.73,0,0,1,3.75-4.69,6,6,0,0,1,5.63,4.69,3.73,3.73,0,0,1-3.75,4.69A6,6,0,0,1,227.79,315.76Z" style="fill:#e6e6e6"></path><path d="M198.29,320.09a3.73,3.73,0,0,1,3.75-4.68,6,6,0,0,1,5.63,4.68,3.73,3.73,0,0,1-3.75,4.69A6,6,0,0,1,198.29,320.09Z" style="fill:#e6e6e6"></path><path d="M228.32,295a3.73,3.73,0,0,1,3.75-4.69A6,6,0,0,1,237.7,295a3.73,3.73,0,0,1-3.75,4.68A6,6,0,0,1,228.32,295Z" style="fill:#ebebeb"></path><path d="M264.21,318.89A3.73,3.73,0,0,1,268,314.2a6,6,0,0,1,5.63,4.69,3.73,3.73,0,0,1-3.75,4.69A6,6,0,0,1,264.21,318.89Z" style="fill:#ebebeb"></path><path d="M362.56,265.36a3.09,3.09,0,0,1,3.1-3.88,5,5,0,0,1,4.66,3.88,3.09,3.09,0,0,1-3.1,3.88A5,5,0,0,1,362.56,265.36Z" style="fill:#e0e0e0"></path><path d="M346.11,262.29a3.73,3.73,0,0,1,3.74-4.69,6,6,0,0,1,5.63,4.69,3.72,3.72,0,0,1-3.75,4.68A6,6,0,0,1,346.11,262.29Z" style="fill:#e6e6e6"></path><path d="M370.74,287a3.73,3.73,0,0,1,3.75-4.69,6,6,0,0,1,5.63,4.69,3.72,3.72,0,0,1-3.75,4.68A6,6,0,0,1,370.74,287Z" style="fill:#e6e6e6"></path><path d="M331.43,291.1a3.09,3.09,0,0,1,3.1-3.88,5,5,0,0,1,4.66,3.88,3.09,3.09,0,0,1-3.11,3.88A5,5,0,0,1,331.43,291.1Z" style="fill:#e0e0e0"></path><ellipse cx="299.88" cy="275.87" rx="3.51" ry="4.29" transform="translate(-105.88 313.14) rotate(-47.86)" style="fill:#e0e0e0"></ellipse><path d="M329,267a3.09,3.09,0,0,1,3.1-3.88,5,5,0,0,1,4.66,3.88,3.08,3.08,0,0,1-3.1,3.88A5,5,0,0,1,329,267Z" style="fill:#e0e0e0"></path><path d="M339.55,273.55a3.09,3.09,0,0,1,3.11-3.88,5,5,0,0,1,4.65,3.88,3.09,3.09,0,0,1-3.1,3.88A5,5,0,0,1,339.55,273.55Z" style="fill:#ebebeb"></path><path d="M359.27,277.43a3.08,3.08,0,0,1,3.1-3.88,5,5,0,0,1,4.66,3.88,3.09,3.09,0,0,1-3.1,3.88A5,5,0,0,1,359.27,277.43Z" style="fill:#e0e0e0"></path><path d="M321.31,275.87a3.08,3.08,0,0,1,3.11-3.88,5,5,0,0,1,4.65,3.88,3.09,3.09,0,0,1-3.1,3.88A5,5,0,0,1,321.31,275.87Z" style="fill:#e0e0e0"></path><path d="M313.28,287a3.73,3.73,0,0,1,3.75-4.69,6,6,0,0,1,5.63,4.69,3.73,3.73,0,0,1-3.75,4.68A6,6,0,0,1,313.28,287Z" style="fill:#e6e6e6"></path><path d="M283.16,288.18a3.73,3.73,0,0,1,3.74-4.69,6,6,0,0,1,5.63,4.69,3.73,3.73,0,0,1-3.75,4.69A6,6,0,0,1,283.16,288.18Z" style="fill:#e6e6e6"></path><path d="M313.18,263.09a3.72,3.72,0,0,1,3.75-4.68,6,6,0,0,1,5.63,4.68,3.73,3.73,0,0,1-3.75,4.69A6,6,0,0,1,313.18,263.09Z" style="fill:#ebebeb"></path><path d="M349.07,287a3.73,3.73,0,0,1,3.75-4.69,6,6,0,0,1,5.63,4.69,3.72,3.72,0,0,1-3.75,4.68A6,6,0,0,1,349.07,287Z" style="fill:#ebebeb"></path><ellipse cx="347.88" cy="299.24" rx="3.51" ry="4.29" transform="translate(-107.42 356.43) rotate(-47.86)" style="fill:#e0e0e0"></ellipse><path d="M309.89,289.51a6,6,0,0,0-5.63-4.69,3.73,3.73,0,0,0-3.75,4.69,6,6,0,0,0,5.63,4.69A3.73,3.73,0,0,0,309.89,289.51Z" style="fill:#e6e6e6"></path><path d="M302.5,308.28a5,5,0,0,0-4.66-3.88,3.09,3.09,0,0,0-3.1,3.88,5,5,0,0,0,4.66,3.88A3.09,3.09,0,0,0,302.5,308.28Z" style="fill:#e0e0e0"></path><path d="M317.72,305.21a6,6,0,0,0-5.62-4.69,3.73,3.73,0,0,0-3.75,4.69,6,6,0,0,0,5.62,4.68A3.72,3.72,0,0,0,317.72,305.21Z" style="fill:#e6e6e6"></path><path d="M205.36,289.33a3.09,3.09,0,0,1,3.1-3.88,5,5,0,0,1,4.66,3.88,3.09,3.09,0,0,1-3.1,3.88A5,5,0,0,1,205.36,289.33Z" style="fill:#e0e0e0"></path><path d="M154.47,331a3.09,3.09,0,0,1,3.1-3.88,5,5,0,0,1,4.66,3.88,3.09,3.09,0,0,1-3.11,3.88A5,5,0,0,1,154.47,331Z" style="fill:#e0e0e0"></path><path d="M192.52,301.65a3.73,3.73,0,0,1,3.75-4.69,6,6,0,0,1,5.62,4.69,3.73,3.73,0,0,1-3.74,4.69A6,6,0,0,1,192.52,301.65Z" style="fill:#e6e6e6"></path><path d="M183.24,288.3a3.73,3.73,0,0,1,3.74-4.69,6,6,0,0,1,5.63,4.69,3.73,3.73,0,0,1-3.75,4.69A6,6,0,0,1,183.24,288.3Z" style="fill:#e6e6e6"></path><path d="M141.6,288.25a3.08,3.08,0,0,1,3.1-3.88,5,5,0,0,1,4.66,3.88,3.09,3.09,0,0,1-3.1,3.88A5,5,0,0,1,141.6,288.25Z" style="fill:#e0e0e0"></path><path d="M108.49,277.19a3.09,3.09,0,0,1,3.1-3.88,5,5,0,0,1,4.66,3.88,3.09,3.09,0,0,1-3.1,3.88A5,5,0,0,1,108.49,277.19Z" style="fill:#e0e0e0"></path><path d="M152.05,274.87a3.09,3.09,0,0,1,3.1-3.88,5,5,0,0,1,4.66,3.88,3.09,3.09,0,0,1-3.11,3.88A5,5,0,0,1,152.05,274.87Z" style="fill:#ebebeb"></path><path d="M113.71,332.49a3.09,3.09,0,0,1,3.1-3.88,5,5,0,0,1,4.66,3.88,3.08,3.08,0,0,1-3.1,3.88A5,5,0,0,1,113.71,332.49Z" style="fill:#ebebeb"></path><ellipse cx="175.64" cy="278.75" rx="3.51" ry="4.29" transform="translate(-148.9 221.97) rotate(-47.86)" style="fill:#e0e0e0"></ellipse><path d="M133.81,277.19a3.09,3.09,0,0,1,3.1-3.88,5,5,0,0,1,4.66,3.88,3.09,3.09,0,0,1-3.11,3.88A5,5,0,0,1,133.81,277.19Z" style="fill:#e0e0e0"></path><path d="M125.15,285.17a3.72,3.72,0,0,1,3.75-4.68,6,6,0,0,1,5.62,4.68,3.73,3.73,0,0,1-3.75,4.69A6,6,0,0,1,125.15,285.17Z" style="fill:#e6e6e6"></path><path d="M95.65,289.51a3.73,3.73,0,0,1,3.75-4.69,6,6,0,0,1,5.63,4.69,3.73,3.73,0,0,1-3.75,4.68A6,6,0,0,1,95.65,289.51Z" style="fill:#e6e6e6"></path><path d="M161.57,288.3a3.73,3.73,0,0,1,3.75-4.69,6,6,0,0,1,5.62,4.69,3.73,3.73,0,0,1-3.75,4.69A6,6,0,0,1,161.57,288.3Z" style="fill:#ebebeb"></path><path d="M199.86,277.69a5,5,0,0,0-4.66-3.88,3.09,3.09,0,0,0-3.1,3.88,5,5,0,0,0,4.65,3.88A3.09,3.09,0,0,0,199.86,277.69Z" style="fill:#e0e0e0"></path><path d="M215.08,274.62a6,6,0,0,0-5.63-4.69,3.73,3.73,0,0,0-3.75,4.69,6,6,0,0,0,5.63,4.69A3.73,3.73,0,0,0,215.08,274.62Z" style="fill:#e6e6e6"></path><path d="M256,224.13a3.09,3.09,0,0,1,3.1-3.88,5,5,0,0,1,4.66,3.88,3.09,3.09,0,0,1-3.1,3.88A5,5,0,0,1,256,224.13Z" style="fill:#e0e0e0"></path><path d="M241.66,231.58a3.73,3.73,0,0,1,3.75-4.69,6,6,0,0,1,5.63,4.69,3.73,3.73,0,0,1-3.75,4.69A6,6,0,0,1,241.66,231.58Z" style="fill:#e6e6e6"></path><path d="M271.49,225.76a3.73,3.73,0,0,1,3.74-4.69,6,6,0,0,1,5.63,4.69,3.73,3.73,0,0,1-3.75,4.69A6,6,0,0,1,271.49,225.76Z" style="fill:#e6e6e6"></path><path d="M266.3,256.27a3.73,3.73,0,0,1,3.75-4.69,6,6,0,0,1,5.63,4.69,3.73,3.73,0,0,1-3.75,4.69A6,6,0,0,1,266.3,256.27Z" style="fill:#e6e6e6"></path><path d="M298.32,256.27a3.73,3.73,0,0,1,3.75-4.69,6,6,0,0,1,5.63,4.69A3.73,3.73,0,0,1,304,261,6,6,0,0,1,298.32,256.27Z" style="fill:#e6e6e6"></path><path d="M224.66,256.22a3.08,3.08,0,0,1,3.11-3.88,5,5,0,0,1,4.65,3.88,3.09,3.09,0,0,1-3.1,3.88A5,5,0,0,1,224.66,256.22Z" style="fill:#e0e0e0"></path><path d="M237.9,267.78a3.08,3.08,0,0,1,3.1-3.88,5,5,0,0,1,4.65,3.88,3.08,3.08,0,0,1-3.1,3.88A5,5,0,0,1,237.9,267.78Z" style="fill:#e0e0e0"></path><path d="M259.85,266.86A3.09,3.09,0,0,1,263,263a5,5,0,0,1,4.66,3.88,3.09,3.09,0,0,1-3.1,3.88A5,5,0,0,1,259.85,266.86Z" style="fill:#e0e0e0"></path><path d="M191.55,245.16a3.09,3.09,0,0,1,3.11-3.88,5,5,0,0,1,4.65,3.88,3.09,3.09,0,0,1-3.1,3.88A5,5,0,0,1,191.55,245.16Z" style="fill:#e0e0e0"></path><path d="M195.62,260.1a3.08,3.08,0,0,1,3.1-3.88,5,5,0,0,1,4.66,3.88,3.09,3.09,0,0,1-3.1,3.88A5,5,0,0,1,195.62,260.1Z" style="fill:#e0e0e0"></path><path d="M224.55,236.27a3.09,3.09,0,0,1,3.1-3.88,5,5,0,0,1,4.66,3.88,3.09,3.09,0,0,1-3.11,3.88A5,5,0,0,1,224.55,236.27Z" style="fill:#e0e0e0"></path><path d="M270.72,241.28a3.09,3.09,0,0,1,3.1-3.88,5,5,0,0,1,4.66,3.88,3.09,3.09,0,0,1-3.11,3.88A5,5,0,0,1,270.72,241.28Z" style="fill:#e0e0e0"></path><ellipse cx="281.5" cy="203.38" rx="3.51" ry="4.29" transform="translate(-58.17 275.66) rotate(-47.86)" style="fill:#e0e0e0"></ellipse><path d="M285.05,266.86a3.09,3.09,0,0,1,3.1-3.88,5,5,0,0,1,4.66,3.88,3.09,3.09,0,0,1-3.11,3.88A5,5,0,0,1,285.05,266.86Z" style="fill:#e0e0e0"></path><path d="M235.11,242.84a3.09,3.09,0,0,1,3.1-3.88,5,5,0,0,1,4.66,3.88,3.09,3.09,0,0,1-3.1,3.88A5,5,0,0,1,235.11,242.84Z" style="fill:#ebebeb"></path><path d="M269.92,213.89A3.09,3.09,0,0,1,273,210a5,5,0,0,1,4.66,3.88,3.09,3.09,0,0,1-3.11,3.88A5,5,0,0,1,269.92,213.89Z" style="fill:#e0e0e0"></path><path d="M254.83,246.72a3.09,3.09,0,0,1,3.1-3.88,5,5,0,0,1,4.66,3.88,3.09,3.09,0,0,1-3.11,3.88A5,5,0,0,1,254.83,246.72Z" style="fill:#e0e0e0"></path><path d="M268,277.17a3.09,3.09,0,0,1,3.1-3.88,5,5,0,0,1,4.66,3.88,3.08,3.08,0,0,1-3.1,3.88A5,5,0,0,1,268,277.17Z" style="fill:#e0e0e0"></path><path d="M216.87,245.16a3.09,3.09,0,0,1,3.1-3.88,5,5,0,0,1,4.66,3.88,3.09,3.09,0,0,1-3.1,3.88A5,5,0,0,1,216.87,245.16Z" style="fill:#e0e0e0"></path><path d="M208.21,253.14a3.72,3.72,0,0,1,3.75-4.68,6,6,0,0,1,5.63,4.68,3.73,3.73,0,0,1-3.75,4.69A6,6,0,0,1,208.21,253.14Z" style="fill:#e6e6e6"></path><path d="M229.6,279.31a3.73,3.73,0,0,1,3.74-4.69,6,6,0,0,1,5.63,4.69,3.72,3.72,0,0,1-3.75,4.68A6,6,0,0,1,229.6,279.31Z" style="fill:#e6e6e6"></path><path d="M212,330.51a3.73,3.73,0,0,1,3.75-4.69,6,6,0,0,1,5.62,4.69,3.73,3.73,0,0,1-3.74,4.69A6,6,0,0,1,212,330.51Z" style="fill:#e6e6e6"></path><path d="M178.71,257.48a3.73,3.73,0,0,1,3.75-4.69,6,6,0,0,1,5.63,4.69,3.72,3.72,0,0,1-3.75,4.68A6,6,0,0,1,178.71,257.48Z" style="fill:#e6e6e6"></path><path d="M164.4,265.36a3.73,3.73,0,0,1,3.75-4.69,6,6,0,0,1,5.63,4.69,3.73,3.73,0,0,1-3.75,4.69A6,6,0,0,1,164.4,265.36Z" style="fill:#e6e6e6"></path><path d="M208.74,232.39a3.73,3.73,0,0,1,3.75-4.69,6,6,0,0,1,5.63,4.69,3.73,3.73,0,0,1-3.75,4.69A6,6,0,0,1,208.74,232.39Z" style="fill:#ebebeb"></path><path d="M244.63,256.27a3.73,3.73,0,0,1,3.75-4.69,6,6,0,0,1,5.63,4.69,3.73,3.73,0,0,1-3.75,4.69A6,6,0,0,1,244.63,256.27Z" style="fill:#ebebeb"></path><path d="M290.84,221.75a3.73,3.73,0,0,1,3.75-4.69,6,6,0,0,1,5.62,4.69,3.73,3.73,0,0,1-3.75,4.69A6,6,0,0,1,290.84,221.75Z" style="fill:#ebebeb"></path><path d="M248.88,280.49a3.73,3.73,0,0,1,3.75-4.69,6,6,0,0,1,5.63,4.69,3.73,3.73,0,0,1-3.75,4.68A6,6,0,0,1,248.88,280.49Z" style="fill:#ebebeb"></path><path d="M161.25,222.51a3.09,3.09,0,0,1,3.1-3.88,5,5,0,0,1,4.66,3.88,3.08,3.08,0,0,1-3.1,3.88A5,5,0,0,1,161.25,222.51Z" style="fill:#e0e0e0"></path><path d="M144.8,219.44a3.72,3.72,0,0,1,3.74-4.69,6,6,0,0,1,5.63,4.69,3.73,3.73,0,0,1-3.75,4.69A6,6,0,0,1,144.8,219.44Z" style="fill:#e6e6e6"></path><path d="M169.43,244.13a3.73,3.73,0,0,1,3.75-4.69,6,6,0,0,1,5.63,4.69,3.73,3.73,0,0,1-3.75,4.69A6,6,0,0,1,169.43,244.13Z" style="fill:#e6e6e6"></path><path d="M143.75,256.87a3.73,3.73,0,0,1,3.75-4.69,6,6,0,0,1,5.63,4.69,3.72,3.72,0,0,1-3.75,4.68A6,6,0,0,1,143.75,256.87Z" style="fill:#e6e6e6"></path><path d="M127.8,244.08a3.08,3.08,0,0,1,3.1-3.88,5,5,0,0,1,4.66,3.88,3.09,3.09,0,0,1-3.11,3.88A5,5,0,0,1,127.8,244.08Z" style="fill:#e0e0e0"></path><path d="M108.85,256.22a3.08,3.08,0,0,1,3.1-3.88,5,5,0,0,1,4.66,3.88,3.09,3.09,0,0,1-3.11,3.88A5,5,0,0,1,108.85,256.22Z" style="fill:#e0e0e0"></path><path d="M94.69,233a3.09,3.09,0,0,1,3.1-3.88,5,5,0,0,1,4.66,3.88,3.09,3.09,0,0,1-3.11,3.88A5,5,0,0,1,94.69,233Z" style="fill:#e0e0e0"></path><path d="M127.68,224.13a3.09,3.09,0,0,1,3.1-3.88,5,5,0,0,1,4.66,3.88,3.09,3.09,0,0,1-3.1,3.88A5,5,0,0,1,127.68,224.13Z" style="fill:#e0e0e0"></path><path d="M138.24,230.7a3.09,3.09,0,0,1,3.11-3.88A5,5,0,0,1,146,230.7a3.09,3.09,0,0,1-3.1,3.88A5,5,0,0,1,138.24,230.7Z" style="fill:#ebebeb"></path><path d="M158,234.58a3.09,3.09,0,0,1,3.1-3.88,5,5,0,0,1,4.66,3.88,3.09,3.09,0,0,1-3.11,3.88A5,5,0,0,1,158,234.58Z" style="fill:#e0e0e0"></path><path d="M120,233a3.09,3.09,0,0,1,3.1-3.88,5,5,0,0,1,4.66,3.88,3.09,3.09,0,0,1-3.1,3.88A5,5,0,0,1,120,233Z" style="fill:#e0e0e0"></path><path d="M111.34,241a3.72,3.72,0,0,1,3.75-4.68,6,6,0,0,1,5.63,4.68,3.73,3.73,0,0,1-3.75,4.69A6,6,0,0,1,111.34,241Z" style="fill:#e6e6e6"></path><path d="M95.12,266.86a3.72,3.72,0,0,1,3.74-4.69,6,6,0,0,1,5.63,4.69,3.73,3.73,0,0,1-3.75,4.69A6,6,0,0,1,95.12,266.86Z" style="fill:#e6e6e6"></path><path d="M82.78,275.87a3.73,3.73,0,0,1,3.75-4.69,6,6,0,0,1,5.62,4.69,3.72,3.72,0,0,1-3.74,4.68A6,6,0,0,1,82.78,275.87Z" style="fill:#e6e6e6"></path><path d="M91.65,219.61a3.09,3.09,0,0,1,3.1-3.88,5,5,0,0,1,4.66,3.88,3.08,3.08,0,0,1-3.1,3.88A5,5,0,0,1,91.65,219.61Z" style="fill:#e0e0e0"></path><path d="M77.79,226.82a3.72,3.72,0,0,1,3.74-4.69,6,6,0,0,1,5.63,4.69,3.73,3.73,0,0,1-3.75,4.69A6,6,0,0,1,77.79,226.82Z" style="fill:#e6e6e6"></path><path d="M67.85,215.56a3.73,3.73,0,0,1,3.75-4.69,6,6,0,0,1,5.63,4.69,3.73,3.73,0,0,1-3.75,4.69A6,6,0,0,1,67.85,215.56Z" style="fill:#e6e6e6"></path><path d="M66,187.53a3.72,3.72,0,0,1,3.74-4.69,6,6,0,0,1,5.63,4.69,3.73,3.73,0,0,1-3.75,4.69A6,6,0,0,1,66,187.53Z" style="fill:#e6e6e6"></path><path d="M81.84,245.34a3.73,3.73,0,0,1,3.75-4.69,6,6,0,0,1,5.63,4.69A3.72,3.72,0,0,1,87.47,250,6,6,0,0,1,81.84,245.34Z" style="fill:#e6e6e6"></path><path d="M207.67,182.39a3.09,3.09,0,0,1,3.1-3.88,5,5,0,0,1,4.66,3.88,3.09,3.09,0,0,1-3.1,3.88A5,5,0,0,1,207.67,182.39Z" style="fill:#e0e0e0"></path><path d="M178.1,184a3.09,3.09,0,0,1,3.11-3.88,5,5,0,0,1,4.65,3.88,3.08,3.08,0,0,1-3.1,3.88A5,5,0,0,1,178.1,184Z" style="fill:#e0e0e0"></path><path d="M217,177.15a3.08,3.08,0,0,1,3.1-3.88,5,5,0,0,1,4.66,3.88,3.09,3.09,0,0,1-3.1,3.88A5,5,0,0,1,217,177.15Z" style="fill:#e0e0e0"></path><path d="M122.78,180.12a3.73,3.73,0,0,1,3.75-4.68,6,6,0,0,1,5.63,4.68,3.73,3.73,0,0,1-3.75,4.69A6,6,0,0,1,122.78,180.12Z" style="fill:#e6e6e6"></path><path d="M153.21,181.07a3.73,3.73,0,0,1,3.75-4.69,6,6,0,0,1,5.62,4.69,3.73,3.73,0,0,1-3.75,4.69A6,6,0,0,1,153.21,181.07Z" style="fill:#e6e6e6"></path><path d="M163.19,193.3a3.73,3.73,0,0,1,3.74-4.69,6,6,0,0,1,5.63,4.69,3.72,3.72,0,0,1-3.75,4.68A6,6,0,0,1,163.19,193.3Z" style="fill:#e6e6e6"></path><path d="M78.2,257.6A3.73,3.73,0,0,1,82,252.91a6,6,0,0,1,5.63,4.69,3.73,3.73,0,0,1-3.75,4.69A6,6,0,0,1,78.2,257.6Z" style="fill:#e6e6e6"></path><path d="M111.87,220.25a3.73,3.73,0,0,1,3.75-4.69,6,6,0,0,1,5.63,4.69,3.73,3.73,0,0,1-3.75,4.69A6,6,0,0,1,111.87,220.25Z" style="fill:#ebebeb"></path><path d="M147.76,244.13a3.73,3.73,0,0,1,3.75-4.69,6,6,0,0,1,5.63,4.69,3.73,3.73,0,0,1-3.75,4.69A6,6,0,0,1,147.76,244.13Z" style="fill:#ebebeb"></path><path d="M125.67,265.36a3.73,3.73,0,0,1,3.75-4.69,6,6,0,0,1,5.63,4.69,3.73,3.73,0,0,1-3.75,4.69A6,6,0,0,1,125.67,265.36Z" style="fill:#ebebeb"></path><path d="M180.13,318.42a3.72,3.72,0,0,1,3.75-4.68,6,6,0,0,1,5.63,4.68,3.73,3.73,0,0,1-3.75,4.69A6,6,0,0,1,180.13,318.42Z" style="fill:#e6e6e6"></path><path d="M165.82,326.3a3.72,3.72,0,0,1,3.75-4.68,6,6,0,0,1,5.63,4.68,3.73,3.73,0,0,1-3.75,4.69A6,6,0,0,1,165.82,326.3Z" style="fill:#e6e6e6"></path><path d="M170.85,305.08a3.73,3.73,0,0,1,3.75-4.69,6,6,0,0,1,5.63,4.69,3.72,3.72,0,0,1-3.75,4.68A6,6,0,0,1,170.85,305.08Z" style="fill:#e6e6e6"></path><path d="M145.17,317.81a3.73,3.73,0,0,1,3.75-4.69,6,6,0,0,1,5.63,4.69,3.73,3.73,0,0,1-3.75,4.69A6,6,0,0,1,145.17,317.81Z" style="fill:#e6e6e6"></path><path d="M129.21,305a3.09,3.09,0,0,1,3.11-3.88A5,5,0,0,1,137,305a3.08,3.08,0,0,1-3.1,3.88A5,5,0,0,1,129.21,305Z" style="fill:#e0e0e0"></path><path d="M194.53,331a3.09,3.09,0,0,1,3.1-3.88,5,5,0,0,1,4.66,3.88,3.09,3.09,0,0,1-3.11,3.88A5,5,0,0,1,194.53,331Z" style="fill:#e0e0e0"></path><path d="M110.27,317.16a3.09,3.09,0,0,1,3.1-3.88,5,5,0,0,1,4.66,3.88,3.08,3.08,0,0,1-3.11,3.88A5,5,0,0,1,110.27,317.16Z" style="fill:#e0e0e0"></path><path d="M89.37,309.32a3.09,3.09,0,0,1,3.11-3.88,5,5,0,0,1,4.65,3.88A3.08,3.08,0,0,1,94,313.2,5,5,0,0,1,89.37,309.32Z" style="fill:#e0e0e0"></path><path d="M112.76,302a3.73,3.73,0,0,1,3.75-4.69,6,6,0,0,1,5.63,4.69,3.73,3.73,0,0,1-3.75,4.69A6,6,0,0,1,112.76,302Z" style="fill:#e6e6e6"></path><path d="M96.53,327.81a3.73,3.73,0,0,1,3.75-4.69,6,6,0,0,1,5.63,4.69,3.72,3.72,0,0,1-3.75,4.68A6,6,0,0,1,96.53,327.81Z" style="fill:#e6e6e6"></path><path d="M241.45,330.51a3.73,3.73,0,0,1,3.75-4.69,6,6,0,0,1,5.62,4.69,3.73,3.73,0,0,1-3.75,4.69A6,6,0,0,1,241.45,330.51Z" style="fill:#e6e6e6"></path><path d="M272.14,332.23a3.72,3.72,0,0,1,3.75-4.68,6,6,0,0,1,5.63,4.68,3.73,3.73,0,0,1-3.75,4.69A6,6,0,0,1,272.14,332.23Z" style="fill:#e6e6e6"></path><path d="M149.18,305.08a3.73,3.73,0,0,1,3.75-4.69,6,6,0,0,1,5.63,4.69,3.72,3.72,0,0,1-3.75,4.68A6,6,0,0,1,149.18,305.08Z" style="fill:#ebebeb"></path><path d="M127.09,326.3a3.73,3.73,0,0,1,3.75-4.68,6,6,0,0,1,5.63,4.68,3.73,3.73,0,0,1-3.75,4.69A6,6,0,0,1,127.09,326.3Z" style="fill:#ebebeb"></path><ellipse cx="249.99" cy="190.6" rx="3.51" ry="4.29" transform="translate(-59.07 248.09) rotate(-47.86)" style="fill:#e0e0e0"></ellipse><path d="M229.66,187.53a3.73,3.73,0,0,1,3.75-4.69,6,6,0,0,1,5.62,4.69,3.73,3.73,0,0,1-3.75,4.69A6,6,0,0,1,229.66,187.53Z" style="fill:#e6e6e6"></path><path d="M254.29,212.22a3.73,3.73,0,0,1,3.75-4.69,6,6,0,0,1,5.63,4.69,3.73,3.73,0,0,1-3.75,4.69A6,6,0,0,1,254.29,212.22Z" style="fill:#e6e6e6"></path><path d="M215,216.34a3.09,3.09,0,0,1,3.1-3.88,5,5,0,0,1,4.66,3.88,3.08,3.08,0,0,1-3.11,3.88A5,5,0,0,1,215,216.34Z" style="fill:#e0e0e0"></path><path d="M179.55,201.11a3.09,3.09,0,0,1,3.1-3.88,5,5,0,0,1,4.66,3.88A3.09,3.09,0,0,1,184.2,205,5,5,0,0,1,179.55,201.11Z" style="fill:#e0e0e0"></path><ellipse cx="216.42" cy="192.22" rx="3.51" ry="4.29" transform="translate(-71.32 223.73) rotate(-47.86)" style="fill:#e0e0e0"></ellipse><path d="M223.1,198.79a3.09,3.09,0,0,1,3.11-3.88,5,5,0,0,1,4.65,3.88,3.09,3.09,0,0,1-3.1,3.88A5,5,0,0,1,223.1,198.79Z" style="fill:#ebebeb"></path><path d="M242.82,202.67a3.09,3.09,0,0,1,3.1-3.88,5,5,0,0,1,4.66,3.88,3.09,3.09,0,0,1-3.1,3.88A5,5,0,0,1,242.82,202.67Z" style="fill:#e0e0e0"></path><path d="M204.86,201.11a3.09,3.09,0,0,1,3.11-3.88,5,5,0,0,1,4.65,3.88,3.09,3.09,0,0,1-3.1,3.88A5,5,0,0,1,204.86,201.11Z" style="fill:#e0e0e0"></path><path d="M196.83,212.22a3.73,3.73,0,0,1,3.75-4.69,6,6,0,0,1,5.63,4.69,3.73,3.73,0,0,1-3.75,4.69A6,6,0,0,1,196.83,212.22Z" style="fill:#e6e6e6"></path><path d="M166.71,213.43a3.73,3.73,0,0,1,3.75-4.69,6,6,0,0,1,5.62,4.69,3.72,3.72,0,0,1-3.75,4.68A6,6,0,0,1,166.71,213.43Z" style="fill:#e6e6e6"></path><path d="M196.73,188.34a3.73,3.73,0,0,1,3.75-4.69,6,6,0,0,1,5.63,4.69,3.72,3.72,0,0,1-3.75,4.68A6,6,0,0,1,196.73,188.34Z" style="fill:#ebebeb"></path><path d="M232.63,212.22a3.72,3.72,0,0,1,3.74-4.69,6,6,0,0,1,5.63,4.69,3.73,3.73,0,0,1-3.75,4.69A6,6,0,0,1,232.63,212.22Z" style="fill:#ebebeb"></path><path d="M235.31,224.49a5,5,0,0,0-4.65-3.88,3.08,3.08,0,0,0-3.11,3.88,5,5,0,0,0,4.66,3.88A3.09,3.09,0,0,0,235.31,224.49Z" style="fill:#e0e0e0"></path><path d="M193.44,214.75a6,6,0,0,0-5.63-4.68,3.72,3.72,0,0,0-3.74,4.68,6,6,0,0,0,5.62,4.69A3.73,3.73,0,0,0,193.44,214.75Z" style="fill:#e6e6e6"></path><ellipse cx="182.17" cy="233.52" rx="3.51" ry="4.29" transform="translate(-113.21 211.93) rotate(-47.86)" style="fill:#e0e0e0"></ellipse><path d="M330.94,190a3.09,3.09,0,0,1,3.1-3.88A5,5,0,0,1,338.7,190a3.09,3.09,0,0,1-3.1,3.88A5,5,0,0,1,330.94,190Z" style="fill:#e0e0e0"></path><path d="M314.49,186.9a3.73,3.73,0,0,1,3.75-4.69,6,6,0,0,1,5.62,4.69,3.72,3.72,0,0,1-3.75,4.68A6,6,0,0,1,314.49,186.9Z" style="fill:#e6e6e6"></path><path d="M264.38,200.48a3.08,3.08,0,0,1,3.1-3.88,5,5,0,0,1,4.66,3.88,3.09,3.09,0,0,1-3.11,3.88A5,5,0,0,1,264.38,200.48Z" style="fill:#e0e0e0"></path><path d="M264.59,182.19a3.08,3.08,0,0,1,3.1-3.88,5,5,0,0,1,4.66,3.88,3.09,3.09,0,0,1-3.1,3.88A5,5,0,0,1,264.59,182.19Z" style="fill:#e0e0e0"></path><path d="M297.37,191.58a3.09,3.09,0,0,1,3.1-3.88,5,5,0,0,1,4.66,3.88,3.08,3.08,0,0,1-3.1,3.88A5,5,0,0,1,297.37,191.58Z" style="fill:#e0e0e0"></path><ellipse cx="311.81" cy="198.16" rx="3.51" ry="4.29" transform="translate(-44.33 296.42) rotate(-47.86)" style="fill:#ebebeb"></ellipse><ellipse cx="331.53" cy="202.04" rx="3.51" ry="4.29" transform="translate(-40.72 312.32) rotate(-47.86)" style="fill:#e0e0e0"></ellipse><path d="M289.69,200.48a3.08,3.08,0,0,1,3.11-3.88,5,5,0,0,1,4.65,3.88,3.09,3.09,0,0,1-3.1,3.88A5,5,0,0,1,289.69,200.48Z" style="fill:#e0e0e0"></path><path d="M281.56,187.7a3.72,3.72,0,0,1,3.75-4.68,6,6,0,0,1,5.63,4.68,3.73,3.73,0,0,1-3.75,4.69A6,6,0,0,1,281.56,187.7Z" style="fill:#ebebeb"></path><path d="M336.4,180.88a3.73,3.73,0,0,1,3.75-4.69,6,6,0,0,1,5.62,4.69,3.72,3.72,0,0,1-3.74,4.69A6,6,0,0,1,336.4,180.88Z" style="fill:#e6e6e6"></path><path d="M355.74,201a5,5,0,0,0-4.65-3.88A3.08,3.08,0,0,0,348,201a5,5,0,0,0,4.66,3.88A3.09,3.09,0,0,0,355.74,201Z" style="fill:#e0e0e0"></path><ellipse cx="139.06" cy="193.82" rx="3.51" ry="4.29" transform="translate(-97.96 166.9) rotate(-47.86)" style="fill:#e0e0e0"></ellipse><path d="M118.73,190.75a3.73,3.73,0,0,1,3.75-4.69,6,6,0,0,1,5.63,4.69,3.73,3.73,0,0,1-3.75,4.69A6,6,0,0,1,118.73,190.75Z" style="fill:#e6e6e6"></path><path d="M75.86,204.33A3.09,3.09,0,0,1,79,200.45a5,5,0,0,1,4.65,3.88,3.09,3.09,0,0,1-3.1,3.88A5,5,0,0,1,75.86,204.33Z" style="fill:#e0e0e0"></path><path d="M99,197.7a3.08,3.08,0,0,1,3.1-3.88,5,5,0,0,1,4.65,3.88,3.08,3.08,0,0,1-3.1,3.88A5,5,0,0,1,99,197.7Z" style="fill:#e0e0e0"></path><path d="M114.06,203.38a3.08,3.08,0,0,1,3.1-3.88,5,5,0,0,1,4.66,3.88,3.08,3.08,0,0,1-3.1,3.87A5,5,0,0,1,114.06,203.38Z" style="fill:#ebebeb"></path><path d="M131.89,205.89A3.09,3.09,0,0,1,135,202a5,5,0,0,1,4.66,3.88,3.09,3.09,0,0,1-3.1,3.88A5,5,0,0,1,131.89,205.89Z" style="fill:#e0e0e0"></path><path d="M102.86,212.22a3.09,3.09,0,0,1,3.1-3.88,5,5,0,0,1,4.66,3.88,3.09,3.09,0,0,1-3.1,3.88A5,5,0,0,1,102.86,212.22Z" style="fill:#e0e0e0"></path><path d="M85.81,191.56a3.73,3.73,0,0,1,3.74-4.69,6,6,0,0,1,5.63,4.69,3.73,3.73,0,0,1-3.75,4.69A6,6,0,0,1,85.81,191.56Z" style="fill:#ebebeb"></path><path d="M108.21,183.86a3.09,3.09,0,0,1,3.11-3.88,5,5,0,0,1,4.65,3.88,3.09,3.09,0,0,1-3.1,3.88A5,5,0,0,1,108.21,183.86Z" style="fill:#e0e0e0"></path><path d="M92.41,180a3.73,3.73,0,0,1,3.75-4.69,6,6,0,0,1,5.62,4.69A3.73,3.73,0,0,1,98,184.67,6,6,0,0,1,92.41,180Z" style="fill:#ebebeb"></path><path d="M140.64,184.74a3.73,3.73,0,0,1,3.75-4.69,6,6,0,0,1,5.63,4.69,3.72,3.72,0,0,1-3.75,4.68A6,6,0,0,1,140.64,184.74Z" style="fill:#e6e6e6"></path><path d="M160,204.83a5,5,0,0,0-4.66-3.88,3.09,3.09,0,0,0-3.1,3.88,5,5,0,0,0,4.65,3.88A3.09,3.09,0,0,0,160,204.83Z" style="fill:#e0e0e0"></path><path d="M365.08,226.15a3.08,3.08,0,0,1,3.1-3.88,5,5,0,0,1,4.65,3.88,3.08,3.08,0,0,1-3.1,3.88A5,5,0,0,1,365.08,226.15Z" style="fill:#e0e0e0"></path><path d="M354.16,191.06a3.08,3.08,0,0,1,3.11-3.88,5,5,0,0,1,4.65,3.88,3.09,3.09,0,0,1-3.1,3.88A5,5,0,0,1,354.16,191.06Z" style="fill:#e0e0e0"></path><path d="M402.3,199.67a3.09,3.09,0,0,1,3.1-3.88,5,5,0,0,1,4.66,3.88,3.09,3.09,0,0,1-3.1,3.88A5,5,0,0,1,402.3,199.67Z" style="fill:#e0e0e0"></path><path d="M357,212.46a3.09,3.09,0,0,1,3.1-3.88,5,5,0,0,1,4.66,3.88,3.08,3.08,0,0,1-3.1,3.88A5,5,0,0,1,357,212.46Z" style="fill:#e0e0e0"></path><path d="M348.62,223.08a3.73,3.73,0,0,1,3.75-4.69,6,6,0,0,1,5.63,4.69,3.73,3.73,0,0,1-3.75,4.69A6,6,0,0,1,348.62,223.08Z" style="fill:#e6e6e6"></path><path d="M363.16,180.88a3.72,3.72,0,0,1,3.74-4.69,6,6,0,0,1,5.63,4.69,3.73,3.73,0,0,1-3.75,4.69A6,6,0,0,1,363.16,180.88Z" style="fill:#e6e6e6"></path><path d="M396.17,182.19a3.73,3.73,0,0,1,3.75-4.69,6,6,0,0,1,5.63,4.69,3.73,3.73,0,0,1-3.75,4.68A6,6,0,0,1,396.17,182.19Z" style="fill:#e6e6e6"></path><path d="M364.32,202a3.73,3.73,0,0,1,3.75-4.69,6,6,0,0,1,5.62,4.69,3.73,3.73,0,0,1-3.75,4.69A6,6,0,0,1,364.32,202Z" style="fill:#e6e6e6"></path><path d="M373.26,247.77a3.73,3.73,0,0,1,3.75-4.69,6,6,0,0,1,5.62,4.69,3.73,3.73,0,0,1-3.74,4.69A6,6,0,0,1,373.26,247.77Z" style="fill:#e6e6e6"></path><path d="M395.9,244.64a3.73,3.73,0,0,1,3.75-4.69,6,6,0,0,1,5.63,4.69,3.73,3.73,0,0,1-3.75,4.69A6,6,0,0,1,395.9,244.64Z" style="fill:#e6e6e6"></path><path d="M331.62,247.71a3.09,3.09,0,0,1,3.1-3.88,5,5,0,0,1,4.66,3.88,3.08,3.08,0,0,1-3.1,3.88A5,5,0,0,1,331.62,247.71Z" style="fill:#e0e0e0"></path><path d="M384.8,201.11a3.09,3.09,0,0,1,3.1-3.88,5,5,0,0,1,4.66,3.88,3.09,3.09,0,0,1-3.11,3.88A5,5,0,0,1,384.8,201.11Z" style="fill:#e0e0e0"></path><path d="M385.62,212.69a3.09,3.09,0,0,1,3.1-3.88,5,5,0,0,1,4.66,3.88,3.09,3.09,0,0,1-3.1,3.88A5,5,0,0,1,385.62,212.69Z" style="fill:#e0e0e0"></path><path d="M298.51,236.66a3.09,3.09,0,0,1,3.1-3.88,5,5,0,0,1,4.66,3.88,3.09,3.09,0,0,1-3.1,3.88A5,5,0,0,1,298.51,236.66Z" style="fill:#e0e0e0"></path><path d="M306.09,210.62a3.09,3.09,0,0,1,3.1-3.88,5,5,0,0,1,4.66,3.88,3.09,3.09,0,0,1-3.1,3.88A5,5,0,0,1,306.09,210.62Z" style="fill:#e0e0e0"></path><path d="M331.5,227.77a3.09,3.09,0,0,1,3.11-3.88,5,5,0,0,1,4.65,3.88,3.08,3.08,0,0,1-3.1,3.88A5,5,0,0,1,331.5,227.77Z" style="fill:#e0e0e0"></path><path d="M322.93,213.43a3.08,3.08,0,0,1,3.1-3.88,5,5,0,0,1,4.66,3.88,3.09,3.09,0,0,1-3.11,3.88A5,5,0,0,1,322.93,213.43Z" style="fill:#e0e0e0"></path><ellipse cx="345.95" cy="234.34" rx="3.51" ry="4.29" transform="matrix(0.67, -0.74, 0.74, 0.67, -59.93, 333.64)" style="fill:#ebebeb"></ellipse><path d="M361.78,238.22a3.09,3.09,0,0,1,3.11-3.88,5,5,0,0,1,4.65,3.88,3.09,3.09,0,0,1-3.1,3.88A5,5,0,0,1,361.78,238.22Z" style="fill:#e0e0e0"></path><path d="M399.43,221.75a3.09,3.09,0,0,1,3.1-3.88,5,5,0,0,1,4.66,3.88,3.09,3.09,0,0,1-3.11,3.88A5,5,0,0,1,399.43,221.75Z" style="fill:#e0e0e0"></path><path d="M323.83,236.66a3.09,3.09,0,0,1,3.1-3.88,5,5,0,0,1,4.66,3.88,3.09,3.09,0,0,1-3.1,3.88A5,5,0,0,1,323.83,236.66Z" style="fill:#e0e0e0"></path><path d="M337.12,213.43a3.08,3.08,0,0,1,3.11-3.88,5,5,0,0,1,4.65,3.88,3.09,3.09,0,0,1-3.1,3.88A5,5,0,0,1,337.12,213.43Z" style="fill:#e0e0e0"></path><path d="M315.17,244.64a3.73,3.73,0,0,1,3.75-4.69,6,6,0,0,1,5.62,4.69,3.73,3.73,0,0,1-3.74,4.69A6,6,0,0,1,315.17,244.64Z" style="fill:#e6e6e6"></path><path d="M285.67,249a3.73,3.73,0,0,1,3.75-4.69,6,6,0,0,1,5.63,4.69,3.72,3.72,0,0,1-3.75,4.68A6,6,0,0,1,285.67,249Z" style="fill:#e6e6e6"></path><path d="M314.18,224.94a3.73,3.73,0,0,1,3.75-4.69,6,6,0,0,1,5.63,4.69,3.73,3.73,0,0,1-3.75,4.68A6,6,0,0,1,314.18,224.94Z" style="fill:#ebebeb"></path><path d="M351.59,247.77a3.73,3.73,0,0,1,3.75-4.69,6,6,0,0,1,5.63,4.69,3.73,3.73,0,0,1-3.75,4.69A6,6,0,0,1,351.59,247.77Z" style="fill:#ebebeb"></path><path d="M385.09,267a3.73,3.73,0,0,1,3.75-4.68,6,6,0,0,1,5.63,4.68,3.73,3.73,0,0,1-3.75,4.69A6,6,0,0,1,385.09,267Z" style="fill:#ebebeb"></path><path d="M370.53,217.06a3.72,3.72,0,0,1,3.75-4.68,6,6,0,0,1,5.63,4.68,3.73,3.73,0,0,1-3.75,4.69A6,6,0,0,1,370.53,217.06Z" style="fill:#e6e6e6"></path><path d="M387.3,225.08a3.73,3.73,0,0,1,3.75-4.69,6,6,0,0,1,5.62,4.69,3.73,3.73,0,0,1-3.75,4.69A6,6,0,0,1,387.3,225.08Z" style="fill:#e6e6e6"></path><path d="M389.88,237.16a5,5,0,0,0-4.66-3.88,3.09,3.09,0,0,0-3.1,3.88,5,5,0,0,0,4.66,3.88A3.09,3.09,0,0,0,389.88,237.16Z" style="fill:#e0e0e0"></path><path d="M383.05,190.6a5,5,0,0,0-4.66-3.88,3.09,3.09,0,0,0-3.1,3.88,5,5,0,0,0,4.65,3.88A3.09,3.09,0,0,0,383.05,190.6Z" style="fill:#e0e0e0"></path><ellipse cx="398.22" cy="256.22" rx="3.51" ry="4.29" transform="translate(-58.95 379.6) rotate(-47.86)" style="fill:#e0e0e0"></ellipse><path d="M201.27,230.45a6,6,0,0,0-5.62-4.69,3.73,3.73,0,0,0-3.75,4.69,6,6,0,0,0,5.63,4.69A3.73,3.73,0,0,0,201.27,230.45Z" style="fill:#e6e6e6"></path><path d="M183.67,144.33l4.82.62.11-4.15L25.53,116.44l.87,7.38,13.71,1.79,19.14,17.31L42.41,157.59l-12.1-.54.8,6.87,156.79,4,.1-4-4.33-.19-7.33-10.56ZM175,151.26l-6.15-8.87L181,144Zm-92.37,8.09L65.37,143.46l14.35-12.69,2.63.35,14.77,15.13L83.44,159.38Zm5.13-27.53,21.5,2.8-9.8,9.4Zm12,17.08,11.41,11.7-22.42-1Zm15.82,11.89L102,146.68l11.78-11.47,2.12.28,11.68,13.44L116.2,160.82Zm4.72-24.73,17.48,2.28-8.21,8.56Zm9.39,15.24,9.14,10.51-18.32-.8ZM142.41,162l-10.85-12.69,9.89-10.46,1.74.23,9.43,12.08L143,162Zm4.36-22.45,14.49,1.88-7,7.87Zm7.52,13.76,7.44,9.54-15.25-.67ZM164.77,163l-8.85-11.53,8.45-9.61,1.46.19,7.72,11-8.31,10ZM47,126.5,74.05,130,62.1,140.44Zm15.6,19.43,14.57,13.18-28.08-1.23Zm118.5,17.74-12.89-.57,6.74-8.17Z" style="fill:#ebebeb"></path></g><g id="freepik--Shadow--inject-112"><ellipse id="freepik--path--inject-112" cx="250" cy="416.24" rx="193.89" ry="11.32" style="fill:#f5f5f5"></ellipse></g><g id="freepik--Character--inject-112"><path d="M248.35,170.82c0,.69-.34,1.25-.79,1.26s-.83-.54-.84-1.23.34-1.25.79-1.26S248.33,170.13,248.35,170.82Z" style="fill:#263238"></path><path d="M248.07,172.07a24.63,24.63,0,0,1-3.16,6c1.24,1.11,3.3.55,3.3.55Z" style="fill:#ed847e"></path><path d="M250.78,167a.44.44,0,0,0,.25-.17.4.4,0,0,0-.11-.56,4,4,0,0,0-3.64-.55.4.4,0,0,0-.22.53.41.41,0,0,0,.52.22h0a3.22,3.22,0,0,1,2.89.46A.39.39,0,0,0,250.78,167Z" style="fill:#263238"></path><path d="M268.35,174c-.39,6.35-.08,17.85,4.8,21.4,0,0-.85,6.5-12.34,8-12.64,1.69-6.88-5.47-6.88-5.47,6.67-2.57,5.81-7.66,4-12.31Z" style="fill:#ffc3bd"></path><path d="M275.69,198.27c.15-3.41.29-7.31-2-8-2.54-.74-15.14.82-18.83,4.18s-1,9.57-1,9.57Z" style="fill:#263238"></path><path d="M253.13,274.83s-40.5,27.89-55.58,49.11C190.43,350.73,177,394.05,177,394.05l9.9,3.28s29.77-45.46,28.24-65.7c51.06-32,76.73-62,76.73-62Z" style="fill:#ffc3bd"></path><polygon points="181.26 409.58 172.74 409.04 177.35 389.54 190.4 393.86 181.26 409.58" style="fill:#263238"></polygon><path d="M173.22,403.92l10.68,2.62a.75.75,0,0,1,.73.58l1.68,7.59a1.23,1.23,0,0,1-1.22,1.51c-3.36-.05-7.51-.25-11.74-.25-4.93,0-9.2.27-15,.27-3.5,0-4.48-3.54-3-3.86,6.67-1.46,10.05-4.24,15.82-7.8A4,4,0,0,1,173.22,403.92Z" style="fill:#5753F6"></path><path d="M292.72,198.79c3.22.68,6.21,1.48,9.28,2.34s6.07,1.8,9.08,2.82a113.43,113.43,0,0,1,17.82,7.69c1.47.82,2.91,1.68,4.34,2.67a31.45,31.45,0,0,1,4.23,3.36,35.62,35.62,0,0,1,3.51,3.92c1,1.31,2,2.62,2.9,4a112.94,112.94,0,0,1,9.26,16.62l-4.87,3c-3.87-4.7-7.75-9.48-11.68-13.88a53.38,53.38,0,0,0-5.94-5.86,38,38,0,0,0-6.82-4.17,121.94,121.94,0,0,0-16.37-6.35c-2.84-.91-5.72-1.76-8.61-2.58s-5.84-1.58-8.63-2.28Z" style="fill:#ffc3bd"></path><path d="M346.84,244l1.57,6.11,8.79-4.47s-1.7-4.52-5.67-5.66Z" style="fill:#ffc3bd"></path><polygon points="351.15 258.49 358.05 253.09 357.2 245.65 348.41 250.12 351.15 258.49" style="fill:#ffc3bd"></polygon><path d="M286.31,195.85c6-4.14,22.93,5.66,23,5.83l-6.79,14s-3-.71-13.05-3.27C279,209.73,280.13,200.08,286.31,195.85Z" style="fill:#5753F6"></path><path d="M290.19,203.66l-1,8.67.29.08,3.86,1A68.09,68.09,0,0,1,290.19,203.66Z" style="opacity:0.2"></path><path d="M243.84,201.68s-7.64,11.37,9.29,73.15l45.22-6.06c-.62-7-9.51-40.26-7.2-73.87a118,118,0,0,0-15.39.12,167.25,167.25,0,0,0-19.23,2.57A86,86,0,0,0,243.84,201.68Z" style="fill:#5753F6"></path><path d="M243.25,228.76c.36,2.77.81,5.81,1.38,9.14,5.48-6.93,6.47-15.81,6.47-15.81Z" style="opacity:0.2"></path><path d="M265,273.09s26.68,67.53,43,87.79C331.9,375,370,399.62,370,399.62l5.84-8.63s-35.7-41-55.59-45c-16.94-57.81-21.87-77.23-21.87-77.23Z" style="fill:#ffc3bd"></path><polygon points="378.19 405.73 385.44 401.23 372.17 386.22 362.72 396.19 378.19 405.73" style="fill:#263238"></polygon><path d="M374.55,403.72l10-4.51a.74.74,0,0,1,.93,0l6,4.93a1.25,1.25,0,0,1,0,2c-2.68,2-6.07,4.42-9.4,7-3.89,3-7.08,3.11-14.57,3.11-3.5,0-4.47-3.54-3-3.86,6.67-1.46,7.8-2.31,8.84-6.87A3.21,3.21,0,0,1,374.55,403.72Z" style="fill:#5753F6"></path><path d="M270.24,287.55s5.77,12.34,9.11,21c7.76.63,24.57-2.41,28.88-6.65-1.72-8.29-2.43-23.82-10.49-35.34C278.82,268.77,270.24,287.55,270.24,287.55Z" style="fill:#263238"></path><path d="M272.67,292.86c.95,2.1,2.07,4.62,3.19,7.24,6.19-4.92,9.7-16.49,9.7-16.49Z" style="opacity:0.2"></path><path d="M250.89,214.82c-3.47,6.34-7.12,12.37-11.09,18.35q-3,4.47-6.22,8.83a104.28,104.28,0,0,1-7,8.53l-1,1a14.47,14.47,0,0,1-1.18,1.17,17.43,17.43,0,0,1-2.92,2.12,47.35,47.35,0,0,1-5.25,2.61c-3.43,1.49-6.83,2.66-10.24,3.79a204.41,204.41,0,0,1-20.65,5.44l-1.66-5.46c6.42-2.68,12.89-5.38,19.17-8.18,3.14-1.4,6.24-2.86,9.15-4.4a42.71,42.71,0,0,0,4-2.39c.29-.2.52-.39.78-.58a6.17,6.17,0,0,0,.49-.46s.4-.46.63-.73l.77-.92A169.58,169.58,0,0,0,230.2,227c3.64-5.8,7.22-11.8,10.62-17.7Z" style="fill:#ffc3bd"></path><path d="M253.62,208.73c5.12,10.58-11.47,27.27-11.47,27.27l-14.41-9.74s5.56-10.36,9.53-17.32C243.94,197.27,249.37,200,253.62,208.73Z" style="fill:#5753F6"></path><g style="opacity:0.4"><path d="M133.85,216.58a.24.24,0,0,1-.22-.13l-13.26-25.29a.24.24,0,0,1,.11-.33.24.24,0,0,1,.33.1l13.26,25.29a.25.25,0,0,1-.1.34Z" style="fill:#5753F6"></path><path d="M139.45,220.56a.23.23,0,0,1-.22-.13L120.64,185a.24.24,0,0,1,.1-.33.25.25,0,0,1,.34.1l18.59,35.46a.25.25,0,0,1-.1.34A.25.25,0,0,1,139.45,220.56Z" style="fill:#5753F6"></path><path d="M144.05,222.63a.28.28,0,0,1-.23-.13L121.55,180l.44-.24,22.28,42.48a.26.26,0,0,1-.11.34A.23.23,0,0,1,144.05,222.63Z" style="fill:#5753F6"></path><path d="M148.08,223.62a.27.27,0,0,1-.23-.14L123,176.15a.25.25,0,0,1,.1-.34.24.24,0,0,1,.34.1l24.83,47.34a.26.26,0,0,1-.11.34Z" style="fill:#5753F6"></path><path d="M151.7,223.84a.28.28,0,0,1-.23-.13L124.9,173a.25.25,0,0,1,.11-.34.24.24,0,0,1,.33.11l26.58,50.67a.25.25,0,0,1-.11.33Z" style="fill:#5753F6"></path><path d="M155.17,223.77a.24.24,0,0,1-.22-.14L127.1,170.54a.25.25,0,1,1,.45-.23l27.84,53.09a.25.25,0,0,1-.11.34A.2.2,0,0,1,155.17,223.77Z" style="fill:#5753F6"></path><path d="M157.92,222.32a.25.25,0,0,1-.22-.13l-28.11-53.61a.25.25,0,0,1,.1-.34.26.26,0,0,1,.34.11L158.14,222a.24.24,0,0,1-.1.33A.27.27,0,0,1,157.92,222.32Z" style="fill:#5753F6"></path><path d="M160.67,220.88a.23.23,0,0,1-.22-.13l-28.12-53.61a.25.25,0,1,1,.45-.23l28.11,53.61a.24.24,0,0,1-.11.33A.2.2,0,0,1,160.67,220.88Z" style="fill:#5753F6"></path><path d="M163.42,219.44a.25.25,0,0,1-.22-.13l-28-53.45a.25.25,0,0,1,.11-.34.24.24,0,0,1,.33.1l28,53.45a.24.24,0,0,1-.1.34A.27.27,0,0,1,163.42,219.44Z" style="fill:#5753F6"></path><path d="M165.46,216.63a.24.24,0,0,1-.22-.13l-26.58-50.69a.25.25,0,0,1,.44-.23l26.58,50.69a.25.25,0,0,1-.1.34A.25.25,0,0,1,165.46,216.63Z" style="fill:#5753F6"></path><path d="M167.34,213.51a.23.23,0,0,1-.22-.13l-25-47.66a.25.25,0,1,1,.45-.23l25,47.66a.25.25,0,0,1-.11.34Z" style="fill:#5753F6"></path><path d="M168.82,209.64a.25.25,0,0,1-.22-.13L146.32,167a.26.26,0,0,1,.1-.34.25.25,0,0,1,.34.1L169,209.27a.25.25,0,0,1-.11.34A.2.2,0,0,1,168.82,209.64Z" style="fill:#5753F6"></path><path d="M169.72,204.69a.26.26,0,0,1-.22-.13L150.91,169.1a.25.25,0,0,1,.1-.34.26.26,0,0,1,.34.11l18.59,35.45a.24.24,0,0,1-.1.34A.27.27,0,0,1,169.72,204.69Z" style="fill:#5753F6"></path><path d="M169.63,197.82a.26.26,0,0,1-.22-.13l-12.9-24.61a.25.25,0,0,1,.1-.34.26.26,0,0,1,.34.11l12.9,24.6a.24.24,0,0,1-.1.34A.27.27,0,0,1,169.63,197.82Z" style="fill:#5753F6"></path><path d="M128.71,169.5a.25.25,0,0,1-.12-.48l5.13-2.68a.24.24,0,0,1,.33.1.25.25,0,0,1-.1.34l-5.13,2.69Z" style="fill:#5753F6"></path><path d="M123.54,175.72a.24.24,0,0,1-.22-.14.24.24,0,0,1,.1-.33l18.81-9.87a.25.25,0,0,1,.23.45l-18.81,9.86A.2.2,0,0,1,123.54,175.72Z" style="fill:#5753F6"></path><path d="M121.77,180.14a.24.24,0,0,1-.12-.46l24.76-13a.26.26,0,0,1,.34.1.25.25,0,0,1-.1.34h0l-24.75,13A.25.25,0,0,1,121.77,180.14Z" style="fill:#5753F6"></path><path d="M121,184.08a.24.24,0,0,1-.22-.14.25.25,0,0,1,.11-.34l29.24-15.33a.25.25,0,0,1,.34.1.26.26,0,0,1-.11.34l-29.24,15.34Z" style="fill:#5753F6"></path><path d="M120.72,187.72a.28.28,0,0,1-.23-.13.26.26,0,0,1,.11-.34l32.64-17.12a.25.25,0,0,1,.34.11.24.24,0,0,1-.1.33l-32.65,17.12Z" style="fill:#5753F6"></path><path d="M120.59,191.3a.25.25,0,0,1-.11-.47L156,172.2a.25.25,0,0,1,.23.45l-35.51,18.62Z" style="fill:#5753F6"></path><path d="M121.32,194.42a.24.24,0,0,1-.22-.14.24.24,0,0,1,.1-.33l37.21-19.51a.25.25,0,0,1,.34.1.26.26,0,0,1-.11.34l-37.21,19.51A.2.2,0,0,1,121.32,194.42Z" style="fill:#5753F6"></path><path d="M122.05,197.55a.24.24,0,0,1-.22-.14.24.24,0,0,1,.1-.33l38.64-20.27a.25.25,0,0,1,.23.45l-38.63,20.26Z" style="fill:#5753F6"></path><path d="M123,200.55a.24.24,0,0,1-.22-.14.24.24,0,0,1,.1-.33l39.58-20.76a.25.25,0,0,1,.34.11.24.24,0,0,1-.1.33l-39.58,20.76Z" style="fill:#5753F6"></path><path d="M124.21,203.44a.24.24,0,0,1-.22-.14.24.24,0,0,1,.1-.33l40.1-21a.24.24,0,0,1,.33.11.24.24,0,0,1-.1.33l-40.1,21A.2.2,0,0,1,124.21,203.44Z" style="fill:#5753F6"></path><path d="M125.61,206.21a.25.25,0,0,1-.12-.48l40.18-21.07a.25.25,0,0,1,.23.45l-40.18,21.07A.2.2,0,0,1,125.61,206.21Z" style="fill:#5753F6"></path><path d="M127.22,208.87a.25.25,0,0,1-.12-.47L167,187.51a.24.24,0,0,1,.33.1.25.25,0,0,1-.1.34l-39.85,20.89A.2.2,0,0,1,127.22,208.87Z" style="fill:#5753F6"></path><path d="M129,211.43a.26.26,0,0,1-.22-.13.26.26,0,0,1,.11-.34l39.1-20.5a.24.24,0,0,1,.33.1.25.25,0,0,1-.1.34l-39.1,20.5Z" style="fill:#5753F6"></path><path d="M131.08,213.87a.25.25,0,0,1-.11-.47l37.89-19.87a.24.24,0,0,1,.33.1.24.24,0,0,1-.1.34L131.2,213.84A.27.27,0,0,1,131.08,213.87Z" style="fill:#5753F6"></path><path d="M133.38,216.17a.24.24,0,0,1-.22-.14.25.25,0,0,1,.1-.34l36.18-19a.26.26,0,0,1,.34.11.24.24,0,0,1-.11.33l-36.18,19A.2.2,0,0,1,133.38,216.17Z" style="fill:#5753F6"></path><path d="M136,218.31a.26.26,0,0,1-.22-.13.26.26,0,0,1,.11-.34l33.85-17.75a.24.24,0,0,1,.34.1.25.25,0,0,1-.1.34L136.1,218.28A.27.27,0,0,1,136,218.31Z" style="fill:#5753F6"></path><path d="M138.93,220.28a.24.24,0,0,1-.22-.14.24.24,0,0,1,.1-.33l30.86-16.18a.24.24,0,0,1,.33.1.25.25,0,0,1-.1.34l-30.85,16.18A.27.27,0,0,1,138.93,220.28Z" style="fill:#5753F6"></path><path d="M142.36,222a.25.25,0,0,1-.12-.47l26.89-14.1a.25.25,0,0,1,.34.11.25.25,0,0,1-.11.33L142.47,222A.2.2,0,0,1,142.36,222Z" style="fill:#5753F6"></path><path d="M146.5,223.32a.26.26,0,0,1-.22-.13.25.25,0,0,1,.11-.34l21.48-11.27a.25.25,0,0,1,.34.11.24.24,0,0,1-.11.33l-21.48,11.27A.27.27,0,0,1,146.5,223.32Z" style="fill:#5753F6"></path><path d="M152.24,223.82a.26.26,0,0,1-.22-.13.26.26,0,0,1,.11-.34L165,216.59a.25.25,0,0,1,.34.1.26.26,0,0,1-.11.34l-12.89,6.76Z" style="fill:#5753F6"></path></g><path d="M151.18,224.59c-9.92,0-20.72-7.18-26.88-18.94a37.09,37.09,0,0,1-4.22-22.77c1.18-7.4,5-13.11,10.6-16.08s12.5-2.82,19.26.42a37.2,37.2,0,0,1,16.34,16.42h0a37.09,37.09,0,0,1,4.21,22.77c-1.18,7.4-4.94,13.12-10.6,16.08A18.51,18.51,0,0,1,151.18,224.59Zm-11.73-57.91a16.77,16.77,0,0,0-7.84,1.89c-5.08,2.67-8.47,7.86-9.55,14.62a35.15,35.15,0,0,0,4,21.54c7.54,14.37,22.29,21.55,32.89,16,5.09-2.66,8.48-7.86,9.56-14.62A37.18,37.18,0,0,0,149.07,169,22.19,22.19,0,0,0,139.45,166.68Z" style="fill:#5753F6"></path><rect x="167.5" y="240.68" width="6.06" height="4.21" rx="1.73" transform="translate(-93.25 106.98) rotate(-27.67)" style="fill:#5753F6"></rect><path d="M187,274.23h0c-1.63.85-3,1.39-3.9-.24L169,247.13c-.86-1.63.39-2.48,2-3.34h0c1.63-.85,3-1.39,3.9.23l14.09,26.87C189.9,272.52,188.65,273.37,187,274.23Z" style="fill:#263238"></path><path d="M183.28,270.17h5.49a1.3,1.3,0,0,1,1.3,1.3v1.7a1.3,1.3,0,0,1-1.3,1.3h-6a.78.78,0,0,1-.78-.78v-2.22a1.3,1.3,0,0,1,1.3-1.3Z" transform="translate(-105.19 117.55) rotate(-27.67)" style="fill:#263238"></path><path d="M169,243.58a1,1,0,0,1-.88-.53c-.08-.15-8-14.64-22.4-19.14a1,1,0,1,1,.6-1.91c15.25,4.75,23.23,19.48,23.56,20.11a1,1,0,0,1-.88,1.47Z" style="fill:#5753F6"></path><path d="M171.26,242.38a1,1,0,0,1-.89-.54c-.33-.63-7.9-15.58-3.14-30.83a1,1,0,0,1,1.91.6c-4.52,14.45,2.93,29.16,3,29.31a1,1,0,0,1-.89,1.46Z" style="fill:#5753F6"></path><path d="M185.74,260.13l-9,.56,5.44,9.44s3.81.54,6.69-5Z" style="fill:#ffc3bd"></path><polygon points="173.51 263.24 177.18 270.4 182.2 270.13 176.76 260.69 173.51 263.24" style="fill:#ffc3bd"></polygon><path d="M271.26,168.87c-.34,8.46-.11,13.43-4.28,17.86-6.28,6.66-16.79,3-19-5.38-2-7.55-1.09-20.12,7.11-23.66A11.55,11.55,0,0,1,271.26,168.87Z" style="fill:#ffc3bd"></path><path d="M253.45,171.49c-2.25-2.25-1.66-7-.83-8.81-2.31,1.27-3,1-3.81-2.15-1.71-6.6,1.71-9,11.63-9.59-1.17,1.83-1.31,3.53,7.24,2.28,8.82-1.28,13.88.45,13.88.45s-4.23,7.59-7.59,9.14c1.91,2.9-.81,18-6.1,19.73S248.9,182.07,253.45,171.49Z" style="fill:#263238"></path><path d="M274.19,159.48c4.58-.91,6.39,0,6.39,0s-2.61,4-7,3.25S274.19,159.48,274.19,159.48Z" style="fill:#263238"></path><path d="M251.42,158.87a18.13,18.13,0,0,1-4.7-4.4s-.61,5.74,3.51,7.48S251.42,158.87,251.42,158.87Z" style="fill:#263238"></path><path d="M249.06,159.66c-1.28.69-1.38,4.6-1.05,5.37s7.76.18,12.26.68,13.38,2,14,2.36.74-.26.62-1.44.95-4.16-.13-4.53S251.53,158.33,249.06,159.66Z" style="fill:#5753F6"></path><path d="M258.59,172.3a9.61,9.61,0,0,1-2.62,5.56c-1.94,2-3.82.62-4.06-1.89-.2-2.25.55-6,2.87-7S258.84,169.77,258.59,172.3Z" style="fill:#ffc3bd"></path><polygon points="250.84 271 251.59 274.25 298.86 268.07 298.35 263.69 250.84 271" style="fill:#263238"></polygon><path d="M251.59,274.25s-11.47,8.57-18.11,15.08c2.5,7.37,12,18,19.14,18.67,7.69-3.56,38.1-17.92,40.24-40.06C283.56,268.94,251.59,274.25,251.59,274.25Z" style="fill:#263238"></path><path d="M121.89,230.65A9.22,9.22,0,1,1,104,226.16a9.37,9.37,0,0,1,2.45-4.29h0a8.92,8.92,0,0,1,1.75-1.36,9.21,9.21,0,0,1,12.63,3.17l.08.13a9.36,9.36,0,0,1,1.18,3.62s0,0,0,0A9,9,0,0,1,121.89,230.65Z" style="fill:#5753F6"></path><path d="M122.11,227.42c-.7-1.8-1.43-2.82-2.13-2.91-1.07-.17-2.49,1.64-3.87,3.37-2.09,2.66-4.48,5.69-7.57,5.12l-.31-.06a4.66,4.66,0,0,1-3.11-2.76,10.06,10.06,0,0,1-.58-5.53,8.75,8.75,0,0,1,1.92-2.78,9.94,9.94,0,0,0-.41,7.89,3.59,3.59,0,0,0,2.67,2.23c2.49.46,4.67-2.3,6.59-4.74,1.7-2.15,3.17-4,4.83-3.75a2.08,2.08,0,0,1,.79.3A9.36,9.36,0,0,1,122.11,227.42Z" style="fill:#fff"></path></g></svg>